<svg style="width:100%;height:100%;" viewBox="0 0 813 200" preserveAspectRatio="none" width="100%" height="100%" xmlns="http://www.w3.org/2000/svg"><defs><svg width="813" height="200" viewBox="0 0 813 200" fill="none" id="svg-531522200_16922">
<path d="M278.758 0H277.744V200H278.758V0Z" fill="white"></path>
<path d="M313.934 36.9629H339.121V39.7262H334.063C332.707 39.7262 331.769 39.9417 331.224 40.3854C330.679 40.829 330.413 41.5009 330.413 42.4135V73.2159C330.413 76.4356 330.692 78.8693 331.262 80.5172C332.099 82.951 333.62 84.8904 335.851 86.3481C338.082 87.8058 340.972 88.5284 344.559 88.5284C349.515 88.5284 353.305 87.2481 355.904 84.6749C358.502 82.1017 359.808 78.6665 359.808 74.3694V49.3219C359.808 47.1036 359.656 45.4304 359.352 44.2895C359.048 43.1487 358.604 42.2487 358.021 41.6149C357.438 40.9811 356.715 40.4995 355.828 40.1952C354.941 39.891 353.47 39.7389 351.404 39.7389V36.9756H372.015V39.7389H370.545C368.238 39.7389 366.514 40.36 365.385 41.6023C364.257 42.8445 363.687 44.6445 363.687 47.0022V73.8117C363.687 79.6679 362.014 84.1552 358.667 87.2734C354.903 90.7847 349.896 92.5466 343.659 92.5466C338.246 92.5466 334 91.7734 330.894 90.2396C327.801 88.7058 325.545 86.5002 324.151 83.6228C323.099 81.4299 322.566 78.6792 322.566 75.3581V42.4262C322.566 41.5896 322.275 40.9304 321.704 40.4488C321.134 39.9671 320.272 39.7262 319.119 39.7262H313.934V36.9629Z" fill="white"></path>
<path d="M376.553 36.9629H389.571L422.465 79.82V48.8022C422.465 45.6839 421.755 43.3642 420.323 41.8685C419.017 40.4868 417.078 39.7769 414.492 39.7262V36.9629H433.594V39.7262C431.642 39.7262 430.185 39.9924 429.221 40.5375C428.258 41.0826 427.421 42.0586 426.699 43.491C425.976 44.9233 425.621 46.4825 425.621 48.181V91.5199H422.148L388.101 46.9008V79.82C388.101 82.7989 388.849 85.0171 390.344 86.4875C391.84 87.958 394.172 88.7058 397.316 88.7565V91.5199H376.515V88.7565C379.126 88.6551 381.192 87.8058 382.713 86.196C384.235 84.5862 384.995 82.6214 384.995 80.289V43.3515L384.349 42.6417C383.119 41.298 382.244 40.5121 381.737 40.2586C381.027 39.9164 380.102 39.7389 378.987 39.7389H376.528V36.9756L376.553 36.9629Z" fill="white"></path>
<path d="M437.815 36.9629H462.964V39.7262H458.655C456.741 39.7262 455.524 39.9671 455.017 40.4488C454.51 40.9304 454.256 41.9445 454.256 43.491V84.8017C454.256 86.4495 454.472 87.4889 454.915 87.8946C455.511 88.465 456.576 88.7439 458.122 88.7439H462.952V91.5072H437.803V88.7439H442.556C444.229 88.7439 445.307 88.503 445.801 88.0087C446.296 87.5143 446.536 86.4495 446.536 84.8017V43.491C446.536 41.9192 446.321 40.9431 445.877 40.5755C445.193 40.0051 443.925 39.7262 442.074 39.7262H437.79V36.9629H437.815Z" fill="white"></path>
<path d="M465.449 36.9629H488.43V39.7262H484.45C482.802 39.7262 481.687 39.929 481.091 40.322C480.495 40.7149 480.203 41.2473 480.203 41.9065C480.203 42.4262 480.419 43.1741 480.863 44.1501L481.154 44.9233L495.516 81.4679L508.217 46.5712C508.458 45.8867 508.585 45.0501 508.585 44.0614C508.585 42.6797 508.179 41.6149 507.381 40.8544C506.582 40.0938 505.479 39.7135 504.085 39.7135H500.358V36.9502H520.5V39.7135H518.878C517.648 39.7135 516.418 40.2966 515.202 41.4501C513.985 42.6036 512.882 44.505 511.906 47.167L495.034 92.7874H492.347L473.08 44.0233C472.42 42.4008 471.647 41.2727 470.773 40.6516C469.898 40.0304 468.706 39.7135 467.211 39.7135H465.436V36.9502L465.449 36.9629Z" fill="white"></path>
<path d="M525.267 36.9629H568.491L569.518 55.3682H567.046C566.07 49.5627 564.511 45.5064 562.382 43.1994C560.252 40.8924 557.489 39.7262 554.079 39.7262H543.393C542.531 39.7262 541.885 39.9544 541.441 40.4234C540.997 40.8924 540.782 41.6022 540.782 42.5656V61.9977H545.459C547.956 61.9977 549.985 61.0977 551.544 59.3104C553.103 57.5231 553.939 54.7598 554.066 51.0458H556.614V76.3088H554.066C553.939 72.1258 553.09 69.1343 551.506 67.3216C549.921 65.5216 547.779 64.609 545.054 64.609H540.782V86.2974C540.782 87.0833 541.048 87.6917 541.568 88.11C542.087 88.5283 542.975 88.7312 544.204 88.7312H552.634C561.798 88.7312 567.072 82.8749 568.466 71.1751H571.128L570.203 91.4945H525.241V88.7312H528.968C530.413 88.7312 531.44 88.4776 532.035 87.9706C532.631 87.4636 532.923 86.7284 532.923 85.7777V42.5529C532.923 41.5896 532.669 40.8797 532.15 40.4107C531.63 39.9417 530.819 39.7135 529.716 39.7135H525.254V36.9502L525.267 36.9629Z" fill="white"></path>
<path d="M576.793 36.9629H604.972C610.435 36.9629 614.669 38.2051 617.673 40.6896C620.69 43.1741 622.186 46.4318 622.186 50.4627C622.186 52.8711 621.59 55.0133 620.398 56.902C619.207 58.7781 617.483 60.2865 615.239 61.402C612.996 62.5175 609.459 63.3287 604.63 63.8231C608.141 64.7864 610.549 65.7245 611.88 66.6498C613.199 67.5751 614.263 68.7667 615.062 70.2244C615.86 71.6821 616.773 74.6736 617.825 79.1736C618.573 82.3932 619.359 84.5988 620.196 85.7777C620.829 86.6904 621.527 87.1467 622.262 87.1467C622.997 87.1467 623.732 86.589 624.379 85.4735C625.025 84.358 625.431 82.3806 625.583 79.5538H628.093C627.624 87.9072 624.543 92.0903 618.839 92.0903C617.039 92.0903 615.493 91.634 614.175 90.7213C612.856 89.8086 611.868 88.465 611.208 86.703C610.689 85.3721 610.118 81.8989 609.472 76.2708C609.104 73.0004 608.521 70.6807 607.723 69.2991C606.924 67.9174 605.669 66.8146 603.983 65.978C602.285 65.1414 600.256 64.7231 597.899 64.7231H593.437V86.158C593.437 87.0706 593.665 87.7044 594.134 88.072C594.73 88.541 595.642 88.7692 596.897 88.7692H602.133V91.5325H576.793V88.7692H582.143C583.321 88.7692 584.183 88.541 584.741 88.072C585.299 87.603 585.565 86.9692 585.565 86.158V42.5656C585.565 41.6276 585.286 40.9304 584.716 40.4614C584.145 39.9924 583.296 39.7643 582.13 39.7643H576.781V37.0009L576.793 36.9629ZM593.424 62.0358H599.876C604.199 62.0358 607.596 61.2245 610.042 59.5893C612.489 57.9541 613.718 55.0514 613.718 50.881C613.718 48.0036 613.262 45.7346 612.337 44.0741C611.411 42.4008 610.207 41.26 608.699 40.6516C607.203 40.0431 604.249 39.7262 599.851 39.7262C596.948 39.7262 595.148 39.929 594.464 40.3347C593.779 40.7403 593.437 41.4375 593.437 42.4135V62.0358H593.424Z" fill="white"></path>
<path d="M664.359 41.0952L667.68 36.3417H670.367L670.583 56.2175H668.149C666.628 50.1204 664.371 45.6712 661.38 42.8698C658.388 40.0684 654.953 38.6614 651.074 38.6614C647.829 38.6614 645.168 39.6374 643.114 41.5768C641.061 43.5163 640.021 45.8993 640.021 48.7007C640.021 50.45 640.414 51.9837 641.2 53.2894C641.986 54.6077 643.165 55.6724 644.724 56.4964C646.283 57.3203 649.224 58.1949 653.559 59.1329C659.631 60.4512 663.89 61.7949 666.336 63.1385C668.783 64.4948 670.608 66.1934 671.812 68.2469C673.016 70.3004 673.625 72.7088 673.625 75.4595C673.625 80.3777 671.964 84.4593 668.669 87.6917C665.36 90.924 661.088 92.5466 655.853 92.5466C650.225 92.5466 645.332 90.7339 641.175 87.0832L637.004 92.1663H634.342V71.0356H637.004C638.031 76.8665 640.351 81.4552 643.938 84.8269C647.525 88.1987 651.569 89.8846 656.069 89.8846C659.707 89.8846 662.673 88.8072 664.98 86.6523C667.274 84.4974 668.428 81.8861 668.428 78.8186C668.428 77.0693 667.997 75.5482 667.135 74.2299C666.273 72.9116 664.904 71.8088 663.04 70.9088C661.177 70.0088 657.501 68.9187 652.013 67.6385C645.991 66.2188 641.884 64.6089 639.692 62.847C636.624 60.3372 635.078 56.7879 635.078 52.1866C635.078 47.5852 636.611 43.4656 639.666 40.398C642.721 37.3304 646.638 35.8093 651.417 35.8093C653.698 35.8093 655.879 36.215 657.945 37.0262C660.011 37.8375 662.153 39.1938 664.359 41.0825V41.0952Z" fill="white"></path>
<path d="M679.811 36.9629H704.96V39.7262H700.65C698.736 39.7262 697.519 39.9671 697.012 40.4488C696.505 40.9304 696.251 41.9445 696.251 43.491V84.8017C696.251 86.4495 696.467 87.4889 696.911 87.8946C697.506 88.465 698.571 88.7439 700.117 88.7439H704.947V91.5072H679.798V88.7439H684.552C686.225 88.7439 687.302 88.503 687.797 88.0087C688.291 87.5143 688.532 86.4495 688.532 84.8017V43.491C688.532 41.9192 688.316 40.9431 687.873 40.5755C687.188 40.0051 685.921 39.7262 684.07 39.7262H679.785V36.9629H679.811Z" fill="white"></path>
<path d="M711.082 36.9629H755.372L756.436 57.5865H753.889C752.215 45.4684 747.83 39.4093 740.731 39.4093C739.299 39.4093 738.323 39.6502 737.79 40.1445C737.258 40.6389 736.992 41.4502 736.992 42.5783V86.1707C736.992 87.058 737.245 87.7044 737.765 88.1227C738.285 88.541 739.134 88.7439 740.313 88.7439H745.814V91.5072H720.475V88.7439H726.75C727.586 88.7439 728.22 88.541 728.664 88.1227C729.107 87.7044 729.323 87.1467 729.323 86.4622V42.2361C729.323 41.298 729.044 40.6009 728.474 40.1192C727.903 39.6375 727.003 39.3967 725.748 39.3967C722.186 39.3967 719.207 41.0826 716.824 44.4543C714.86 47.2304 713.44 51.6035 712.578 57.5865H709.891L711.069 36.9629H711.082Z" fill="white"></path>
<path d="M757.704 36.9629H781.598V39.7262H778.949C776.743 39.7262 775.311 39.9037 774.639 40.2459C773.98 40.5882 773.65 41.0699 773.65 41.6783C773.65 42.2868 773.828 42.8952 774.17 43.4149L788.012 64.9132L797.975 46.5839C798.419 45.7726 798.634 44.8853 798.634 43.9346C798.634 42.6544 798.216 41.6403 797.379 40.8671C796.543 40.1065 795.351 39.7262 793.805 39.7262H791.257V36.9629H812.058V39.7262C809.688 39.7262 807.812 40.1445 806.443 40.9811C805.074 41.8178 803.755 43.3896 802.475 45.6966L789.863 68.754V86.0185C789.863 86.9312 790.116 87.5777 790.636 87.9706C791.346 88.4903 792.41 88.7439 793.805 88.7439H798.495V91.5072H773.447V88.7439H778.391C779.722 88.7439 780.672 88.503 781.268 88.0213C781.864 87.5396 782.156 86.8678 782.156 86.0185V69.2357L765.221 42.8698C764.485 41.7417 763.623 40.9431 762.635 40.4868C761.646 40.0305 759.998 39.7769 757.691 39.7262V36.9629H757.704Z" fill="white"></path>
<path d="M340.819 118.241C345.421 118.241 349.731 119.457 353.749 121.879C357.767 124.3 360.911 127.684 363.192 132.019C365.461 136.354 366.602 141.247 366.602 146.685C366.602 152.123 365.461 157.029 363.167 161.402C360.885 165.775 357.742 169.185 353.749 171.631C349.756 174.078 345.522 175.295 341.048 175.295C336.573 175.295 332.567 174.091 328.727 171.695C324.886 169.299 321.806 165.864 319.486 161.402C317.166 156.94 316 151.996 316 146.559C316 141.121 317.128 136.367 319.372 132.045C321.615 127.722 324.696 124.35 328.613 121.904C332.517 119.457 336.586 118.241 340.819 118.241ZM341.415 121.08C336.624 121.08 332.732 123.07 329.766 127.05C326.8 131.031 325.304 137.521 325.304 146.52C325.304 156.281 326.825 163.037 329.88 166.764C332.935 170.491 336.7 172.367 341.2 172.367C344.343 172.367 347.119 171.517 349.502 169.819C351.885 168.12 353.787 165.433 355.206 161.744C356.626 158.056 357.323 153.213 357.323 147.218C357.323 140.677 356.664 135.569 355.333 131.893C354.002 128.217 352.114 125.491 349.654 123.717C347.195 121.942 344.457 121.067 341.428 121.067L341.415 121.08Z" fill="white"></path>
<path d="M374.562 119.381H418.928L419.663 138.269H417.115C415.987 131.778 414.403 127.545 412.362 125.58C410.03 123.298 406.696 122.145 402.361 122.145H393.614C392.752 122.145 392.131 122.348 391.738 122.753C391.345 123.159 391.143 123.767 391.143 124.579V144.315H395.833C398.444 144.315 400.523 143.453 402.069 141.729C403.616 140.005 404.452 137.356 404.579 133.756H407.228V158.36H404.579C404.402 154.278 403.565 151.363 402.069 149.613C400.573 147.864 398.495 146.99 395.833 146.99H391.143V167.791C391.143 169.02 391.434 169.882 392.03 170.389C392.626 170.896 393.64 171.15 395.097 171.15H400.776V173.913H374.55V171.15H380.153C381.281 171.15 382.092 170.922 382.574 170.465C383.055 170.009 383.296 169.261 383.296 168.234V124.857C383.296 123.869 383.043 123.172 382.536 122.753C382.029 122.335 381.154 122.132 379.899 122.132H374.55V119.369L374.562 119.381Z" fill="white"></path>
<path d="M443.279 119.381H461.443L477.745 162.467L492.753 119.381H511.336V122.145H506.798C505.2 122.145 504.123 122.373 503.565 122.842C503.008 123.311 502.741 124.122 502.741 125.276V168.462C502.741 169.324 503.071 169.984 503.743 170.453C504.402 170.922 505.555 171.15 507.178 171.15H511.348V173.913H486.377V171.15H491.042C492.372 171.15 493.361 170.896 494.008 170.389C494.654 169.882 494.971 169.236 494.971 168.45V122.132L476.933 173.913H474.449L455.029 122.348V161.998C455.029 164.355 455.321 166.117 455.917 167.296C456.512 168.462 457.349 169.362 458.439 169.984C459.529 170.605 461.342 170.998 463.877 171.15V173.913H443.291V171.15C446.663 170.934 448.945 170.199 450.149 168.969C451.353 167.74 451.962 165.56 451.962 162.441V124.819C451.962 123.881 451.683 123.197 451.112 122.766C450.542 122.335 449.49 122.119 447.944 122.119H443.291V119.356L443.279 119.381Z" fill="white"></path>
<path d="M516.127 119.381H541.276V122.145H536.966C535.052 122.145 533.835 122.386 533.328 122.867C532.821 123.349 532.567 124.363 532.567 125.91V167.22C532.567 168.868 532.783 169.908 533.226 170.313C533.822 170.884 534.887 171.162 536.433 171.162H541.263V173.926H516.114V171.162H520.867C522.541 171.162 523.618 170.922 524.112 170.427C524.607 169.933 524.848 168.868 524.848 167.22V125.91C524.848 124.338 524.632 123.362 524.189 122.994C523.504 122.424 522.236 122.145 520.386 122.145H516.101V119.381H516.127Z" fill="white"></path>
<path d="M570.468 118.241H572.94L592.499 168.146C593.285 170.161 594.895 171.175 597.328 171.175H599.027V173.938H577.262V171.175H578.999C581.255 171.175 582.853 170.934 583.791 170.44C584.424 170.098 584.754 169.565 584.754 168.855C584.754 168.437 584.665 167.993 584.5 167.524L579.988 155.939H558.413L555.878 162.581C555.219 164.355 554.877 165.75 554.877 166.789C554.877 167.993 555.435 169.033 556.55 169.882C557.666 170.744 559.301 171.175 561.443 171.175H563.281V173.938H543.507V171.175C545.623 171.175 547.297 170.719 548.526 169.793C549.756 168.868 550.884 167.119 551.923 164.533L570.468 118.241ZM569.403 128.749L559.605 153.049H578.872L569.403 128.749Z" fill="white"></path>
<path d="M599.876 119.381H618.041L634.342 162.467L649.35 119.381H667.933V122.145H663.395C661.798 122.145 660.721 122.373 660.163 122.842C659.605 123.311 659.339 124.122 659.339 125.276V168.462C659.339 169.324 659.669 169.984 660.34 170.453C661 170.922 662.153 171.15 663.776 171.15H667.946V173.913H642.974V171.15H647.639C648.97 171.15 649.959 170.896 650.605 170.389C651.252 169.882 651.569 169.236 651.569 168.45V122.132L633.531 173.913H631.046L611.627 122.348V161.998C611.627 164.355 611.919 166.117 612.514 167.296C613.11 168.462 613.947 169.362 615.037 169.984C616.127 170.605 617.94 170.998 620.475 171.15V173.913H599.889V171.15C603.261 170.934 605.543 170.199 606.747 168.969C607.951 167.74 608.559 165.56 608.559 162.441V124.819C608.559 123.881 608.281 123.197 607.71 122.766C607.14 122.335 606.088 122.119 604.541 122.119H599.889V119.356L599.876 119.381Z" fill="white"></path>
<path d="M672.725 119.381H697.873V122.145H693.564C691.65 122.145 690.433 122.386 689.926 122.867C689.419 123.349 689.165 124.363 689.165 125.91V167.22C689.165 168.868 689.381 169.908 689.824 170.313C690.42 170.884 691.485 171.162 693.031 171.162H697.861V173.926H672.712V171.162H677.465C679.138 171.162 680.216 170.922 680.71 170.427C681.205 169.933 681.446 168.868 681.446 167.22V125.91C681.446 124.338 681.23 123.362 680.786 122.994C680.102 122.424 678.834 122.145 676.984 122.145H672.699V119.381H672.725Z" fill="white"></path>
<path d="M1.27071 33.2107H65.6768C67.274 35.0614 66.6275 37.1782 66.6275 39.1176C66.6656 69.1214 66.6529 99.1252 66.6656 129.129C66.6656 141.019 72.5091 148.789 84.0062 152.136C101.093 157.105 118.472 157.041 136.028 155.533C144.495 154.81 152.671 153.72 160.454 150.057C169.302 145.887 173.042 138.674 173.08 129.421C173.219 98.7323 173.802 83.3945 173.194 44.4669C173.194 44.3908 173.156 41.7289 173.105 38.1162C173.08 36.5951 173.067 34.9726 173.042 33.5022H238.322C239.59 35.2135 238.994 37.305 239.007 39.2571C239.045 73.6467 238.804 108.024 239.172 142.413C239.286 152.63 234.355 158.664 226.179 163.252C214.53 169.806 201.676 172.379 188.709 174.483C169.746 177.564 150.593 177.868 131.465 178.958C116.735 179.795 102.158 178.742 87.6061 178.21C65.8543 177.411 43.9757 175.282 23.276 167.55C15.5818 164.672 7.7354 161.706 3.03265 154.126C1.66366 151.92 0.763672 149.626 0.763672 147.04C0.763672 109.786 0.776348 72.5439 0.814375 35.2895C0.814375 34.8078 1.01719 34.3135 1.27071 33.198V33.2107Z" fill="#FDFCFB"></path>
<path d="M124.607 174.268V161.465C133.886 161.022 142.962 160.629 151.797 158.347C154.244 157.713 156.69 157.041 159.035 156.116C172.117 150.982 177.745 142.781 177.77 128.66C177.821 100.355 177.795 72.0622 177.795 43.757C177.795 41.9443 177.795 40.1317 177.795 38.0402H233.671C234.634 39.9289 234.178 41.8049 234.178 43.5922C234.178 76.1058 233.886 108.619 234.317 141.12C234.431 150.032 230.717 155.406 223.416 159.272C213.757 164.381 203.274 166.827 192.652 168.817C170.355 173 147.792 173.824 124.607 174.255V174.268Z" fill="#0E512F"></path>
<path d="M83.867 157.308C73.4982 154.062 65.1574 148.51 62.4321 137.115C62.3688 133.084 62.2547 129.053 62.242 125.009C62.2166 98.0731 62.2673 71.1496 62.1533 44.2133C62.1533 42.1725 63.5349 39.4345 60.5181 38.0529H5.58082C5.58082 40.081 5.58082 41.7289 5.58082 43.3767C5.5935 76.0551 5.87237 108.721 5.45406 141.399C5.3273 151.35 11.5131 157.827 20.3736 161.364C32.0734 166.041 44.4577 168.792 56.8928 170.643C76.2362 173.533 95.4528 173.342 114.948 173.342V161.414C104.212 161.389 93.8683 160.426 83.867 157.295V157.308Z" fill="#F27425"></path>
</svg></defs><use href="#svg-531522200_16922"></use></svg>