<svg style="width:100%;height:100%;" viewBox="0 0 537 200" preserveAspectRatio="none" width="100%" height="100%" xmlns="http://www.w3.org/2000/svg"><defs><svg width="537" height="200" viewBox="0 0 537 200" fill="none" id="svg-1205569842_6176">
<path d="M525.531 70.5206C519.302 70.5034 514.171 75.617 514.24 81.8974C514.308 88.3666 519.611 93.1713 525.548 93.1027C531.828 93.1027 536.942 88.0234 536.925 81.7945C536.925 75.5312 531.863 70.5377 525.531 70.5206ZM525.497 91.747C520.108 91.7642 515.595 87.1998 515.613 81.8116C515.613 76.3549 520.108 71.8762 525.565 71.8762C530.936 71.9105 535.552 76.1489 535.535 81.8116C535.518 87.7145 530.747 91.7299 525.497 91.7642V91.747Z" fill="white"></path>
<path d="M531.245 87.1481C530.387 87.0623 530.01 86.4446 529.701 85.7582C529.46 85.2091 529.237 84.6428 528.98 84.0937C528.499 83.0813 527.967 82.1032 526.835 81.657C526.938 81.4683 527.092 81.4854 527.247 81.4511C529.134 81.0393 530.112 79.8381 530.044 78.0021C529.992 76.5435 528.997 75.6683 527.127 75.3766C525.651 75.1536 524.193 75.3079 522.717 75.2736C521.945 75.2565 521.172 75.2736 520.417 75.2736C520.314 75.6855 520.486 75.8056 520.778 75.8399C521.859 76.0287 521.927 76.0973 521.927 77.1956C521.927 80.0612 521.927 82.944 521.927 85.8097C521.927 86.2043 521.927 86.599 521.721 86.925C521.344 87.2854 520.863 87.131 520.486 87.1996C520.349 87.354 520.4 87.4741 520.434 87.6114H525.119C525.119 87.4913 525.17 87.3884 525.119 87.354C524.759 86.9422 524.107 87.2854 523.66 86.7191C523.437 85.2262 523.609 83.5961 523.558 81.9831C525.685 81.7085 526.2 81.983 527.007 83.8534C527.384 84.7286 527.744 85.6037 528.139 86.4789C528.448 87.1481 528.963 87.5943 529.701 87.6458C530.301 87.6972 530.919 87.6458 531.503 87.6458C531.554 87.3712 531.571 87.1996 531.279 87.1653L531.245 87.1481ZM523.54 81.2967C523.54 79.718 523.523 78.2423 523.54 76.7494C523.54 76.166 523.849 75.7884 524.518 75.8399C525.05 75.8742 525.617 75.8056 526.132 75.8914C527.539 76.1316 528.242 77.024 528.259 78.431C528.259 79.9411 527.556 80.8334 526.132 81.1422C525.308 81.331 524.484 81.2795 523.54 81.2967Z" fill="white"></path>
<path d="M126.347 198.549C114.644 200.385 103.37 197.896 92.1816 194.979C65.2925 187.978 40.1021 177.185 17.3484 161.106C11.926 157.28 6.79511 153.041 3.03715 147.481C-2.04211 139.966 -0.102969 135.092 8.71709 133.136C18.8413 130.888 28.691 133.359 38.5749 135.075C40.6341 135.435 42.6589 136.002 45.8506 136.722C36.9447 125.843 29.0169 115.616 22.3761 104.514C17.0223 95.5392 12.0117 86.3931 9.91818 75.9944C7.65311 64.7205 13.1272 59.504 24.2123 62.4383C34.7483 65.2181 43.6199 71.1897 52.3026 77.4358C56.4381 80.4044 60.4019 83.6132 65.3439 87.4055C61.8777 72.8198 58.8062 59.0749 57.4849 45.0383C56.5068 34.6053 55.8718 24.1894 58.0682 13.8421C59.2351 8.38536 60.5049 2.46528 66.5794 0.543399C72.8083 -1.42996 77.6645 2.31084 82.0059 6.30904C89.6248 13.3273 95.459 21.7699 100.452 30.71C122.983 71.0009 136.917 114.072 141.052 160.077C142.03 171.024 142.408 182.213 136.642 192.388C135.046 191.341 134.961 189.66 134.789 188.013C135.184 180.943 132.833 174.422 129.675 168.416C114.438 139.331 93.2456 114.981 68.2097 91.7126C74.3528 113.231 81.9716 132.518 89.539 152.338C76.0172 149.644 64.3142 142.814 51.067 140.086C66.5621 158.584 84.3397 174.285 104.399 187.378C110.131 191.118 116.068 194.55 122.983 195.752C124.493 196.232 126.278 196.386 126.381 198.549H126.347Z" fill="#F36D22"></path>
<path d="M495.605 67.9293C495.605 76.7322 495.605 85.0203 495.605 93.3256C493.631 94.7327 492.464 92.7765 491.109 92.0901C475.322 84.1795 458.763 80.2328 441.037 81.9659C439.973 82.0689 438.892 82.1032 437.862 82.3434C428.956 84.2653 424.049 88.4694 423.397 94.6983C422.745 100.773 426.159 105.2 434.688 109.181C444.366 113.711 454.85 115.891 464.957 119.185C473.898 122.085 482.649 125.311 490.354 130.888C512.146 146.641 510.104 178.678 486.304 191.427C471.907 199.149 456.12 200.247 440.213 199.578C421.904 198.823 404.247 193.675 393.23 186.417V159.716C404.573 166.409 416.327 170.493 428.785 172.432C440.248 174.216 451.727 174.765 463.138 171.882C468.578 170.51 473.245 168.09 474.121 161.827C475.047 155.272 471.032 151.531 465.901 148.751C456.652 143.741 446.339 141.596 436.438 138.404C426.691 135.264 416.979 132.072 408.416 126.272C385.388 110.708 386.555 78.0707 410.767 64.3258C426.365 55.4714 443.439 55.1625 460.616 57.1016C472.731 58.4572 484.313 62.0092 495.622 67.9293H495.605Z" fill="white"></path>
<path d="M371.18 162.17V190.638C342.609 201.86 314.004 204.76 286.085 189.42C261.478 175.898 251.731 153.47 252.744 126.375C254.254 85.3292 282.156 58.114 323.407 56.3981C339.709 55.7117 355.273 58.2342 369.756 66.6253V94.1665C360.712 89.0872 351.429 85.295 341.253 83.9565C330.203 82.4979 319.478 83.4932 309.199 87.7659C290.495 95.5564 280.972 113.883 284.215 135.35C287.235 155.392 302.421 169.566 323.013 171.831C339.846 173.684 355.599 170.201 371.197 162.17H371.18Z" fill="white"></path>
<path d="M164.029 30.2466C173.467 27.9301 183.128 25.5792 193.612 23.0052V59.8298H242.586V86.8392H193.973C193.973 109.61 193.698 131.729 194.093 153.848C194.281 164.778 200.716 170.63 211.801 171.934C222.149 173.152 232.221 171.745 242.569 168.759V194.825C225.752 199.286 208.73 201.792 191.553 196.781C175.028 191.959 163.823 178.317 163.617 161.02C163.12 117.95 163.428 74.8617 163.446 31.791C163.446 31.4135 163.737 31.0188 164.029 30.2638V30.2466Z" fill="white"></path>
<path d="M126.346 198.548C125.3 197.347 123.807 197.399 122.399 197.176C115.227 194.224 110.353 188.682 105.738 182.744C100.349 175.812 96.2138 168.142 91.8724 160.591C90.7227 158.601 89.5388 156.507 90.0192 154.036C92.5074 152.132 94.6351 153.693 96.5913 154.74C109.015 161.381 121.181 168.365 130.979 178.781C133.364 181.303 135.389 183.877 136.35 187.223C136.436 188.956 136.522 190.672 136.608 192.405C134.857 197.227 130.928 198.428 126.346 198.566V198.548Z" fill="#AB202D"></path>
<path d="M136.351 187.223C124.631 171.9 108.569 162.427 90.0885 153.213C98.6683 170.801 107.694 186.022 122.417 197.176C109.908 194.516 100.11 186.846 90.2944 179.433C74.3016 167.352 59.7672 153.693 46.8289 137.409C61.6205 140.463 74.679 146.52 89.1618 152.406C79.4666 131.437 71.8648 110.914 65.6873 88.7268C75.8458 95.6936 83.5848 103.793 90.9978 112.064C104.623 127.25 117.544 143.054 127.496 161.003C132.044 169.206 136.419 177.476 136.368 187.223H136.351Z" fill="#DF2926"></path>
</svg></defs><use href="#svg-1205569842_6176"></use></svg>