<svg style="width:100%;height:100%;" viewBox="0 0 501 200" preserveAspectRatio="none" width="100%" height="100%" xmlns="http://www.w3.org/2000/svg"><defs><svg width="501" height="200" viewBox="0 0 501 200" fill="none" id="svg-755166055_20352">
<path d="M68.5155 101.405C68.5155 101.405 68.5155 101.366 68.5155 101.341C68.5027 101.354 68.4774 101.366 68.4646 101.379C68.4774 101.379 68.5027 101.379 68.5155 101.392V101.405Z" fill="white"></path>
<path d="M86.8251 141.505C86.6721 141.505 86.5319 141.479 86.3789 141.467C86.5319 141.569 86.6721 141.658 86.8251 141.76V141.492V141.505Z" fill="white"></path>
<path d="M64.1038 141.683C64.0401 141.683 63.9763 141.709 63.8998 141.722C63.8105 141.645 63.7469 141.556 63.6831 141.467V141.964C63.8234 141.862 63.9636 141.785 64.1038 141.683Z" fill="white"></path>
<path d="M151.368 8.61943C150.322 4.36077 145.949 -0.0253903 139.115 0.000110663C117.898 0.114865 96.6812 0.0383623 75.4772 0.0383623C54.9744 0.0383623 34.4844 0.0383623 13.9816 0.0383623C13.0763 0.0383623 12.1583 0.114865 11.253 0.102114C4.77576 -0.0253904 0.0453807 6.09484 0.0581312 12.1386C0.172885 49.3572 0.121843 86.563 0.0963421 123.782C0.0963421 128.678 0.466143 133.536 1.40968 138.33C10.8068 186.106 60.3551 212.525 105.275 194.1C133.211 182.651 151.865 154.472 151.916 124.304C151.98 87.2261 151.929 50.135 151.929 13.0566C151.929 11.552 151.725 10.0857 151.368 8.61943ZM145.771 130.386C143.514 149.487 134.805 165.157 119.874 177.232C104.688 189.51 87.2331 194.432 67.8014 192.405C40.3114 189.549 15.9452 168.969 8.39691 142.193C6.61184 135.844 5.55358 129.392 5.55358 122.787C5.55358 116.157 5.55358 109.514 5.55358 102.884C5.55358 102.578 5.60459 102.272 5.64284 101.787C6.50987 101.787 7.27491 101.787 8.03994 101.787C25.3296 101.774 42.6319 101.749 59.9215 101.736C59.9215 88.1568 59.9088 74.5648 59.9088 60.9856C59.9088 58.8308 60.6611 58.0912 62.8414 58.0785C66.4626 58.0657 70.0836 58.0785 73.794 58.0785V37.2697C73.182 36.8107 72.5062 37.0147 71.8815 37.0147C67.3295 36.9892 62.7777 36.9765 58.213 37.0147C56.6829 37.0275 55.7903 36.3262 55.7521 34.8854C55.7138 33.4318 56.6448 32.6413 58.1238 32.6413C69.969 32.6413 81.8142 32.6413 93.6466 32.6413C95.1384 32.6413 96.0946 33.3808 96.1074 34.8089C96.1074 36.3644 95.1128 37.0275 93.519 37.0147C88.4443 36.9765 83.3697 37.002 78.1547 37.002V58.2953C81.3424 58.2953 84.5044 58.2953 87.6665 58.2953C91.0837 58.2953 91.4153 58.6268 91.4153 62.1204C91.4153 74.4756 91.4153 86.8436 91.4153 99.1988V101.621H145.962C146.14 101.915 146.268 102.017 146.268 102.131C146.217 111.554 146.918 121.015 145.809 130.399L145.771 130.386Z" fill="white"></path>
<path d="M72.5958 136.264C72.481 136.162 72.379 136.06 72.2898 135.946V136.558C72.3918 136.443 72.4938 136.354 72.5958 136.252V136.264Z" fill="white"></path>
<path d="M78.6014 136.481C78.6014 136.481 78.5505 136.558 78.5122 136.609C78.5377 136.634 78.5631 136.66 78.6014 136.672V136.481Z" fill="white"></path>
<path d="M224.721 101.417C216.918 101.328 209.115 101.392 201.311 101.417C200.75 101.417 200.138 101.226 199.679 101.634V110.572H204.869V113.033C204.869 126.689 204.869 140.332 204.869 153.987C204.869 157.507 206.463 159.636 209.637 159.661C215.872 159.712 222.133 160.222 228.342 159.496C236.758 158.501 243.605 154.625 248.284 147.37C251.752 142.002 252.708 136.048 252.798 129.723C253.014 112.574 239.983 101.583 224.734 101.405L224.721 101.417ZM239.269 141.977C236.337 147.396 231.568 149.933 225.716 150.532C222.758 150.838 219.749 150.583 216.854 150.583C215.949 149.958 215.656 149.385 215.656 148.581C215.592 136.162 215.515 123.743 215.452 111.337C215.452 111.159 215.541 110.967 215.656 110.547C219.634 110.725 223.663 110.151 227.616 111.018C235.444 112.727 240.073 117.776 241.514 125.516C242.559 131.164 242.1 136.749 239.269 141.977Z" fill="white"></path>
<path d="M366.838 69.3753C374.093 60.8707 373.583 47.3042 368.113 39.2969C361.942 30.2441 348.286 29.4026 341.018 37.6139C340.814 37.8434 340.661 38.1621 340.202 37.9326C340.253 35.7268 339.794 33.6612 337.27 33.1257C333.496 32.3352 329.683 32.8452 325.909 32.7687V41.592C326.406 41.6175 326.789 41.643 327.171 41.6558C329.687 41.6898 330.945 42.9691 330.945 45.4937C330.945 59.8634 330.945 74.246 330.958 88.6157C330.958 89.3553 330.703 90.1713 331.162 90.7451H341.018V70.0766C342.013 71.2496 342.689 72.0146 343.556 72.6139C350.823 77.6248 361.088 76.082 366.825 69.3498L366.838 69.3753ZM359.455 62.0948C355.694 68.1512 347.024 68.2405 343.16 62.2733C339.246 56.2296 340.024 47.3552 344.831 43.0583C349.548 38.8379 356.791 40.1257 359.774 45.7104C361.19 48.3625 361.674 50.4663 361.687 53.96C361.802 56.9053 360.998 59.6084 359.455 62.0948Z" fill="white"></path>
<path d="M204.933 25.9219V74.5394H215.669V54.6232C217.709 54.6232 219.583 54.6487 221.445 54.6232C224.11 54.585 226.787 54.891 229.427 54.3937C239.41 52.5066 245.543 43.7853 244.485 33.0749C243.503 23.1296 236.146 16.4356 226.073 16.3846C217.811 16.3463 209.561 16.3846 201.299 16.3846C200.789 16.3846 200.292 16.4356 199.692 16.4611V25.5521C201.465 25.9092 203.16 25.3736 204.92 25.9347L204.933 25.9219ZM215.809 25.4629C219.647 25.7179 223.357 25.0039 227.004 25.6924C230.918 26.4319 233.405 29.5175 233.698 33.4957C234.017 37.8818 233.188 41.809 229.006 44.2188C227.871 44.8691 226.634 45.3154 225.308 45.3281C222.197 45.3664 219.073 45.3281 215.809 45.3281V25.4501V25.4629Z" fill="white"></path>
<path d="M280.887 117.049C268.048 116.96 258.217 126.65 258.268 139.095C258.306 151.514 268.213 161.077 281.028 161.064C293.931 161.064 303.953 151.552 303.813 139.171C303.672 126.536 294.556 117.151 280.887 117.049ZM281.04 151.794C273.224 151.858 268.213 145.062 268.66 138.649C268.621 131.406 273.875 125.822 280.722 125.834C288.053 125.86 293.37 131.266 293.408 138.725C293.434 146.057 288.091 151.743 281.04 151.794Z" fill="white"></path>
<path d="M405.803 117.037C392.823 116.935 383.069 126.37 383.044 138.891C383.018 151.437 392.734 161.013 405.536 161.064C418.605 161.102 428.512 151.692 428.486 139.184C428.461 126.842 419.344 117.151 405.803 117.049V117.037ZM405.433 151.731C398 151.386 393.193 145.636 393.55 137.514C393.843 130.794 399.543 125.528 406.16 125.847C414.703 125.847 418.426 133.523 418.209 139.337C417.942 146.707 412.395 152.062 405.433 151.731Z" fill="white"></path>
<path d="M312.139 73.9273C315.046 72.7415 318.016 71.5047 320.197 68.9036C318.782 66.5065 317.43 64.1987 316.053 61.8526C310.047 66.8635 303.889 68.062 298.585 65.2314C294.747 63.1914 292.426 60.042 292.006 55.3881H320.758C320.758 53.5775 320.783 52.0857 320.758 50.5939C320.567 39.144 312.776 31.5957 301.364 31.8635C292.222 32.0675 285.885 36.7214 282.634 44.9965C279.344 53.3735 280.237 61.5976 286.536 68.4446C293.077 75.5593 303.149 77.5994 312.139 73.9273ZM302.754 39.8453C307.268 40.419 310.353 43.8999 310.035 48.1586H292.286C293.332 42.8416 297.973 39.2332 302.754 39.8453Z" fill="white"></path>
<path d="M497.11 140.281C493.705 137.144 489.561 135.831 485.468 134.237C483.467 133.459 481.49 132.631 479.731 131.394C477.64 129.915 477.41 127.403 479.272 126.166C481.758 124.508 484.512 124.483 487.317 125.286C489.574 125.937 489.574 127.836 489.612 129.698H498.729C498.729 128.397 498.729 127.237 498.729 126.077C498.716 122.749 497.186 120.186 494.19 118.962C487.152 116.093 480.05 115.672 473.19 119.612C467.07 123.119 465.96 131.317 470.729 136.545C473.827 139.962 477.933 141.53 482.051 143.124C484.168 143.953 486.284 144.794 488.159 146.095C490.734 147.867 490.556 150.672 487.776 152.1C486.412 152.802 484.946 152.968 483.416 152.764C478.826 152.164 475.166 149.856 471.723 146.516C470.066 148.722 468.485 150.838 466.891 152.955C467.197 153.35 467.376 153.618 467.592 153.847C471.672 158.195 476.926 160.082 482.676 160.694C488.248 161.294 493.221 159.904 497.25 155.747C500.552 152.343 502.006 144.794 497.11 140.294V140.281Z" fill="white"></path>
<path d="M338.366 150.723C329.823 154.09 321.14 149.512 320.044 140.689C319.011 132.286 325.093 125.286 333.011 125.873C337.333 126.192 338.06 126.829 338.838 130.998H347.687C347.687 129.417 347.661 127.938 347.687 126.459C347.738 123.629 346.552 121.55 344.244 119.893C337.563 115.073 323.015 114.563 314.842 124.202C307.013 133.447 308.823 149.448 317.264 154.982C323.282 158.935 329.186 161.294 336.364 160.325C342 159.56 346.679 157.086 350.658 152.955C349.23 150.596 347.827 148.275 346.31 145.776C343.798 147.957 341.222 149.601 338.366 150.723Z" fill="white"></path>
<path d="M368.394 143.303C368.394 141.479 368.394 139.656 368.394 137.845C368.394 134.033 368.394 130.208 368.394 126.153H377.931V117.802H368.381V106.581H358.448V117.687C356.574 118.018 354.738 117.534 353.055 117.98V126.166H358.231C358.231 127.199 358.231 127.9 358.231 128.614C358.231 133.88 358.066 139.159 358.295 144.412C358.474 148.581 358.869 152.84 362.401 155.875C367.182 159.98 372.856 160.261 378.836 159.776V150.621C378.046 150.685 377.344 150.711 376.656 150.787C371.683 151.297 368.381 148.301 368.381 143.29L368.394 143.303Z" fill="white"></path>
<path d="M463.334 117.904C459.827 117.483 456.602 117.776 453.809 120.008C451.195 122.111 449.295 124.738 448.02 128.385C448.02 126.09 448.097 124.343 448.008 122.596C447.88 120.212 446.567 118.529 444.208 118.376C440.536 118.146 436.838 118.312 433.128 118.312V126.727C434.594 127.186 436.073 126.663 438.024 127.288C438.228 132.72 438.19 138.126 438.19 143.545C438.19 148.977 438.19 154.408 438.19 159.674H448.339C448.339 154.281 448.377 149.155 448.326 144.017C448.301 141.454 448.696 138.98 449.321 136.519C450.456 132.006 453.503 129.532 457.8 128.283C459.623 127.76 461.51 127.977 463.499 127.824C463.499 126.09 463.538 124.483 463.499 122.864C463.461 121.206 463.703 119.523 463.346 117.891L463.334 117.904Z" fill="white"></path>
<path d="M263.419 71.9892C263.533 66.328 263.1 60.6668 263.674 55.0183C264.222 49.6376 266.275 45.226 271.77 43.2369C273.874 42.4719 276.08 42.3571 278.477 42.4846V32.1822C270.891 31.2897 266.657 35.5356 263.47 41.6303C263.317 39.9473 263.381 38.3407 263.291 36.7469C263.189 34.6686 261.953 33.1895 260.014 32.8835C256.177 32.2842 252.288 32.705 248.45 32.6158V41.3498C249.125 41.3881 249.699 41.4391 250.273 41.4391C253.486 41.4391 253.499 41.4518 253.499 44.7287C253.499 53.8963 253.499 63.0766 253.499 72.2442C253.499 72.9327 253.308 73.6595 253.703 74.3608H263.381C263.381 73.5065 263.368 72.7415 263.381 71.9892H263.419Z" fill="white"></path>
<path d="M63.1473 138.483C63.1218 127.632 63.1473 116.782 63.1345 105.931C63.1345 104.911 63.2875 103.853 62.752 102.884C61.9487 102.233 60.7885 102.539 60.0107 101.864C60.61 102.82 60.457 103.904 60.457 104.936C60.457 117.623 60.508 130.297 60.4315 142.984C60.4187 145.292 61.1073 147.077 62.5864 148.811C65.8377 152.623 68.9616 156.538 72.1237 160.414C72.9397 161.408 73.6919 162.517 75.0307 162.798C76.1145 162.696 76.6884 161.969 77.2494 161.255C80.9853 156.589 84.8103 151.973 88.5972 147.344C89.3877 146.388 89.7192 145.33 89.7192 144.106C89.7192 130.909 89.7192 117.7 89.7192 104.503C89.7192 103.929 89.7321 103.33 89.3623 102.807C88.8268 102.374 88.3039 102.501 87.8067 102.807C87.2584 103.776 87.4115 104.771 87.3987 105.727C87.3987 116.59 87.3987 127.454 87.386 138.317C87.386 139.401 87.5772 140.536 86.8759 141.505C86.8632 141.505 86.8376 141.505 86.8249 141.505V141.772C86.6719 141.67 86.5316 141.568 86.3786 141.479C83.7775 141.288 81.9415 139.35 81.9287 136.532C81.8905 126.128 81.9287 115.723 81.9032 105.319C81.9032 104.363 82.0435 103.355 81.5208 102.476C80.9215 102.029 80.3221 102.042 79.6719 102.374C79.0343 103.215 79.2129 104.222 79.2129 105.179C79.2001 114.614 79.2129 124.037 79.2001 133.472C79.2001 134.441 79.3404 135.461 78.6136 136.494V136.685C78.6136 136.685 78.5627 136.634 78.5244 136.621C78.5244 136.634 78.5117 136.647 78.4989 136.66C76.6501 136.137 74.6737 135.193 72.8121 136.468C72.7356 136.405 72.672 136.341 72.5954 136.277C72.4934 136.379 72.3915 136.468 72.2894 136.583V135.971C71.6264 135.142 71.7921 134.173 71.7794 133.293C71.7539 123.998 71.7794 114.69 71.7539 105.395C71.7539 104.426 71.8814 103.445 71.4096 102.552C70.5808 101.723 69.2802 102.552 68.5024 101.659C68.5024 101.57 68.5024 101.506 68.5024 101.43C68.4897 101.43 68.4643 101.43 68.4515 101.417C68.0053 101.417 67.559 101.417 67.1127 101.417C67.5079 101.506 67.8905 101.659 68.2603 102.017C68.6938 102.488 68.6554 103.419 68.6554 104.324C68.6809 115.175 68.6809 126.026 68.6554 136.876C68.6554 139.707 67.1127 141.288 64.0781 141.696C63.9378 141.785 63.8104 141.874 63.6574 141.976V141.479C62.9816 140.625 63.1345 139.528 63.1345 138.496L63.1473 138.483ZM75.4005 139.159C78.8941 141.352 82.2858 143.494 85.9579 145.789C83.8923 148.466 81.9032 151.055 79.8759 153.681H71.1419C69.1273 151.208 67.0362 148.658 64.8558 145.993C68.3877 143.711 71.8049 141.492 75.4005 139.159Z" fill="white"></path>
<path d="M78.4865 136.647C78.4865 136.647 78.4993 136.621 78.512 136.609C76.5612 134.951 74.6996 134.263 72.583 136.277C72.6595 136.341 72.7104 136.405 72.7997 136.468C74.6612 135.193 76.6377 136.137 78.4865 136.66V136.647Z" fill="white"></path>
<path d="M87.386 138.317C87.3987 127.454 87.386 116.59 87.3987 105.727C87.3987 104.758 87.2584 103.776 87.8067 102.807C88.304 102.514 88.8268 102.374 89.3624 102.807C89.7321 103.33 89.7193 103.929 89.7193 104.503C89.7193 117.7 89.732 130.909 89.7193 144.106C89.7193 145.317 89.375 146.375 88.5972 147.345C84.8103 151.973 80.9853 156.576 77.2494 161.255C76.6757 161.969 76.1145 162.696 75.0307 162.798C73.6919 162.518 72.9397 161.408 72.1237 160.414C68.9616 156.538 65.8378 152.61 62.5864 148.811C61.1073 147.077 60.4187 145.292 60.4315 142.984C60.508 130.297 60.4698 117.623 60.457 104.936C60.457 103.891 60.61 102.807 60.0108 101.864C59.9853 101.838 59.9469 101.813 59.9214 101.787C59.8449 102.348 59.7175 102.896 59.7175 103.457C59.7175 117.241 59.7175 131.024 59.7175 144.82C59.7175 145.534 59.7429 146.21 60.2529 146.835C64.6264 152.151 68.9616 157.519 73.3605 162.811C74.508 164.188 75.6427 164.124 76.7903 162.747C81.3422 157.239 85.8431 151.68 90.2165 146.324V101.953C89.0818 102.068 88.0617 101.723 86.8504 102.335V141.518C86.8504 141.518 86.8887 141.518 86.9015 141.518C87.6027 140.549 87.4115 139.414 87.4115 138.33L87.386 138.317Z" fill="white"></path>
<path d="M59.9216 101.736L59.8833 101.774C59.8833 101.774 59.9088 101.774 59.9216 101.774C59.9216 101.774 59.9216 101.749 59.9216 101.736Z" fill="white"></path>
<path d="M79.1872 133.459C79.1999 124.024 79.1872 114.601 79.2 105.166C79.2 104.21 79.0214 103.202 79.659 102.361C80.3092 102.029 80.9213 102.004 81.5079 102.463C82.0434 103.355 81.8903 104.35 81.8903 105.306C81.903 115.711 81.8776 126.115 81.9158 136.519C81.9158 139.324 83.7646 141.275 86.3657 141.467C84.9377 140.523 83.7264 139.707 82.4642 138.878V101.711C81.1126 101.507 79.914 101.443 78.5752 101.774V136.481C79.302 135.448 79.1618 134.428 79.1618 133.459H79.1872Z" fill="white"></path>
<path d="M62.7398 102.884C63.2881 103.84 63.1223 104.898 63.1223 105.931C63.135 116.782 63.1223 127.632 63.135 138.483C63.135 139.503 62.9821 140.612 63.6578 141.466V102.119C62.2935 101.991 61.1077 101.876 59.9219 101.774C59.9474 101.8 59.9602 101.838 59.9729 101.864C60.7507 102.539 61.911 102.233 62.7143 102.884H62.7398Z" fill="white"></path>
<path d="M71.4095 102.527C71.8813 103.419 71.7538 104.414 71.7538 105.37C71.7538 114.665 71.7538 123.973 71.7793 133.268C71.7793 134.148 71.6136 135.104 72.2894 135.946V101.889C70.9506 101.226 69.6754 101.889 68.5279 101.405C68.5279 101.481 68.5151 101.545 68.5279 101.634C69.3057 102.527 70.6062 101.698 71.435 102.527H71.4095Z" fill="white"></path>
<path d="M68.6811 136.851C68.7066 126 68.7066 115.15 68.6811 104.299C68.6811 103.394 68.7195 102.463 68.286 101.991C67.9289 101.634 67.5336 101.481 67.1384 101.392C66.1948 101.392 65.2386 101.392 64.295 101.392C65.4808 101.991 66.8579 101.226 68.0947 101.876V139.057C66.7941 139.911 65.5701 140.714 64.1038 141.671C67.1384 141.263 68.6684 139.669 68.6811 136.851Z" fill="white"></path>
<path d="M59.9087 101.787C59.9087 101.787 59.9725 101.838 59.998 101.864C59.9725 101.838 59.9597 101.8 59.947 101.774H59.9215C59.9215 101.774 59.9215 101.787 59.9215 101.8L59.9087 101.787Z" fill="white"></path>
<path d="M85.8558 70.0129C86.4296 67.8325 86.2638 65.6267 85.9195 63.0639C78.9705 62.9109 72.1362 62.9491 65.4932 63.0384C64.6134 63.9819 64.7793 64.8617 64.7793 65.6905C64.7793 76.6049 64.7793 87.532 64.7793 98.4464C64.7793 99.2242 64.6772 100.015 65.1617 100.703C65.2254 100.78 65.3148 100.844 65.3913 100.895C66.4241 100.588 67.4442 100.754 68.4769 101.379C68.4897 101.366 68.5151 101.354 68.5278 101.341C68.6171 100.27 69.6371 100.665 70.3002 100.474C70.7847 100.474 71.2692 100.499 71.7537 100.397C71.945 100.372 72.1234 100.372 72.3147 100.397C72.5952 100.448 72.863 100.537 73.1307 100.627C73.322 100.678 73.5006 100.729 73.6791 100.792C75.1836 100.869 76.7009 101.086 78.1417 100.397C79.7356 99.8617 81.3294 99.9 82.9359 100.346C83.8667 100.614 84.8103 100.958 85.8558 100.346C86.4169 98.7524 86.2128 97.1204 85.9578 95.3736C83.4204 94.4173 80.6918 95.5648 78.2565 94.532C77.4022 93.1422 77.4405 91.8034 78.18 90.3626C80.6026 89.2278 83.3312 90.3754 85.7793 89.5466C86.3785 88.195 86.2128 86.9455 85.9195 85.5429C82.1964 84.6887 78.3712 85.8107 74.7756 84.8544C73.8831 83.3626 73.9213 82.0366 74.7501 80.4683C78.282 79.5885 82.0179 80.5193 85.6518 79.8945C86.4806 78.5557 86.149 77.2424 85.945 75.8781C83.3822 74.8835 80.6535 76.0948 78.2182 74.9856C77.4149 73.6595 77.4787 72.3717 78.1162 70.9054C78.1927 70.8672 78.2565 70.8544 78.333 70.8162C80.6281 69.7706 83.2675 70.8162 85.8431 70.0129H85.8558Z" fill="white"></path>
<path d="M78.2311 74.9856C80.6664 76.0949 83.3951 74.8708 85.958 75.8781C86.1492 77.2296 86.4935 78.5429 85.6647 79.8945C82.0308 80.5065 78.2821 79.5757 74.763 80.4683C73.9342 82.0366 73.896 83.3754 74.7885 84.8544C78.3842 85.8107 82.2093 84.6887 85.9324 85.543C86.2257 86.9455 86.3915 88.2078 85.7922 89.5466C83.3441 90.3754 80.6156 89.2406 78.193 90.3626C77.4534 91.8034 77.4151 93.1422 78.2694 94.532C80.7047 95.5648 83.4334 94.4173 85.9707 95.3736C86.213 97.1204 86.4169 98.7652 85.8686 100.346C84.8231 100.958 83.8796 100.614 82.9489 100.346C81.3423 99.8872 79.7485 99.849 78.1547 100.397C76.7139 101.086 75.1966 100.869 73.692 100.793C73.5135 100.729 73.3222 100.665 73.1437 100.627C72.8759 100.538 72.6081 100.448 72.3276 100.397C72.1364 100.372 71.9452 100.372 71.7667 100.397C71.2822 100.487 70.7976 100.461 70.3131 100.474C69.6501 100.652 68.63 100.27 68.5408 101.341C69.2038 100.703 70.0964 101.188 70.8232 100.92C71.1674 100.538 71.6136 100.627 72.0599 100.64L72.1493 100.691L72.2512 100.652C72.468 100.716 72.6338 100.844 72.774 101.022L72.876 101.111L72.9907 101.048C74.661 101.048 76.3314 101.048 78.0017 101.048C79.3915 100.448 80.9853 100.257 82.2731 100.78C83.8414 101.405 85.2694 101.137 86.774 101.124V94.481H78.2439C78.2821 93.002 78.0272 91.7269 78.4734 90.2989H86.876C86.9015 88.3863 87.0927 86.665 86.7357 84.7652H74.9798C74.6866 83.3244 74.712 82.0621 74.9543 80.583H86.9398C86.8378 78.6322 87.1437 76.8981 86.723 74.9856H78.3587V70.8162C78.2822 70.8544 78.2184 70.8672 78.1419 70.9054C77.5044 72.3717 77.4406 73.6595 78.2439 74.9856H78.2311Z" fill="white"></path>
<path d="M65.1491 100.703C64.6774 100.015 64.7667 99.2114 64.7667 98.4464C64.7667 87.532 64.7667 76.6048 64.7667 65.6904C64.7667 64.8617 64.6009 63.9819 65.4806 63.0383C72.1109 62.9491 78.9579 62.9108 85.9069 63.0638C86.2512 65.6267 86.4043 67.8325 85.8433 70.0128C83.2677 70.8034 80.6283 69.7706 78.3332 70.8161H86.7613V62.5283H64.1802C64.142 63.0766 64.0781 63.5229 64.0781 63.9564C64.0781 75.9928 64.0781 88.0293 64.0781 100.066C64.0781 100.512 64.2057 100.945 64.2694 101.392C64.6264 101.162 64.9962 101.009 65.3532 100.894C65.2767 100.831 65.2003 100.78 65.1238 100.703H65.1491Z" fill="white"></path>
<path d="M65.3787 100.907C65.8632 101.264 66.488 101.252 67.1382 101.392C67.5845 101.392 68.0308 101.392 68.4771 101.392C67.4443 100.767 66.4115 100.601 65.3914 100.907H65.3787Z" fill="white"></path>
<path d="M65.3789 100.907C65.0219 101.009 64.6522 101.175 64.2952 101.405C65.2387 101.405 66.195 101.405 67.1385 101.405C66.501 101.252 65.8634 101.277 65.3789 100.92V100.907Z" fill="white"></path>
<path d="M72.978 101.048C74.6483 101.341 76.3187 101.341 77.989 101.048C76.3187 101.29 74.6483 101.29 72.978 101.048Z" fill="white"></path>
<path d="M77.989 101.048C76.3187 101.048 74.6483 101.048 72.978 101.048C74.6483 101.29 76.3187 101.29 77.989 101.048Z" fill="white"></path>
<path d="M72.0472 100.64C71.6775 100.907 71.193 100.703 70.8232 100.92C71.2695 100.984 71.6902 100.946 72.0472 100.64Z" fill="white"></path>
<path d="M70.8104 100.92C71.1929 100.703 71.6646 100.92 72.0344 100.64C71.6008 100.64 71.1419 100.538 70.7976 100.92H70.8104Z" fill="white"></path>
</svg></defs><use href="#svg-755166055_20352"></use></svg>