<svg style="width:100%;height:100%;" viewBox="0 0 660 200" preserveAspectRatio="none" width="100%" height="100%" xmlns="http://www.w3.org/2000/svg"><defs><svg width="660" height="200" viewBox="0 0 660 200" fill="none" id="svg-158490612_19844">
<path d="M76.7301 1.43555C74.096 1.43555 72.5284 2.9708 72.5284 5.54032V90.3831L8.58119 3.16472C7.70852 2.03349 6.51264 1.43555 5.15515 1.43555C4.00776 1.43555 2.97349 1.80724 2.05234 2.56678C1.05038 3.37481 0.51709 4.45757 0.51709 5.68577V102.52C0.51709 103.667 0.921102 104.701 1.66449 105.493C2.44019 106.334 3.49062 106.77 4.70266 106.77C5.9147 106.77 6.96513 106.334 7.74084 105.509C8.50038 104.701 8.9044 103.683 8.9044 102.536V17.8062L72.7062 104.879C73.5788 106.01 74.8232 106.608 76.2776 106.608C77.425 106.608 78.4916 106.204 79.3481 105.445C80.2693 104.637 80.7541 103.57 80.7541 102.358V5.54032C80.7541 4.37676 80.3339 3.35865 79.5421 2.58294C78.7664 1.83956 77.7806 1.43555 76.6978 1.43555H76.7301Z" fill="white"></path>
<path d="M140.37 5.00706C140.015 3.98894 138.964 2.25977 135.974 2.25977C134.019 2.25977 132.532 3.13243 131.627 4.86161L87.7675 100.936C87.1372 102.164 87.1534 103.457 87.816 104.572C88.414 105.59 89.3674 106.285 90.5471 106.56H90.6279C90.9835 106.641 91.339 106.673 91.6784 106.673C93.3429 106.673 94.6681 105.833 95.4276 104.265L112.202 67.3059H159.747L176.634 104.2C177.41 106.14 179.058 106.996 181.24 106.56C182.387 106.285 183.341 105.623 184.003 104.637C184.763 103.505 184.812 102.18 184.197 100.984L140.37 5.00706ZM155.965 59.258H115.951L135.958 15.5114L155.965 59.258Z" fill="white"></path>
<path d="M253.348 17.5315C248.5 12.7964 242.731 9.01488 236.202 6.26759C229.673 3.5203 222.579 2.13049 215.129 2.13049H195.187C194.136 2.13049 193.134 2.50219 192.326 3.22941C191.454 4.00511 190.985 5.03939 190.985 6.25143V102.681C190.985 103.893 191.454 104.928 192.326 105.687C193.134 106.398 194.136 106.786 195.187 106.786H215.129C222.579 106.786 229.673 105.396 236.202 102.649C242.715 99.9179 248.484 96.1525 253.332 91.4659C258.196 86.7793 262.091 81.2201 264.935 74.9175C267.796 68.5987 269.234 61.7467 269.234 54.5391C269.234 47.3315 267.78 40.4794 264.935 34.1607C262.091 27.8742 258.18 22.2827 253.332 17.5476L253.348 17.5315ZM261.008 54.5068C261.008 60.5185 259.796 66.2716 257.421 71.6208C255.029 76.9861 251.716 81.7211 247.595 85.7127C243.458 89.7044 238.529 92.9042 232.97 95.199C227.411 97.5099 221.415 98.6735 215.161 98.6735H199.421V10.1946H215.161C221.415 10.1946 227.411 11.3582 232.97 13.6691C238.545 15.9801 243.474 19.1799 247.595 23.1553C251.732 27.147 255.029 31.882 257.421 37.2473C259.796 42.5965 261.008 48.3981 261.008 54.5068Z" fill="white"></path>
<path d="M341.003 99.7078C340.227 99.0452 339.274 98.6897 338.224 98.6897H290.211V6.23531C290.211 5.0556 289.79 4.03748 288.999 3.26178C288.223 2.51839 287.189 2.11438 286.009 2.11438C284.474 2.11438 283.553 2.77696 283.035 3.32642C282.324 4.08596 281.953 5.08792 281.953 6.23531V102.665C281.953 105.202 283.504 106.77 286.009 106.77H338.224C339.306 106.77 340.292 106.366 341.068 105.623C341.86 104.863 342.28 103.829 342.28 102.665C342.28 101.146 341.585 100.225 341.003 99.7078Z" fill="white"></path>
<path d="M0.51709 156.868V128.942H5.41373C9.42154 135.487 18.1321 149.369 19.6996 152.375H19.732C19.4572 148.803 19.4895 144.392 19.4895 139.85V128.942H22.9802V156.868H18.3745C14.6899 150.807 5.62381 135.891 3.89463 132.756H3.81383C4.00775 135.923 4.00776 140.659 4.00776 145.717V156.868H0.51709Z" fill="#B31F3C"></path>
<path d="M45.5402 152.423C45.5402 154.314 45.7018 156.269 45.815 156.884H42.4374C42.2758 156.447 42.1627 155.478 42.1142 154.233C41.387 155.558 39.7548 157.368 35.8116 157.368C30.9957 157.368 28.9434 154.233 28.9434 151.147C28.9434 146.605 32.5148 144.521 38.575 144.521H42.0334V142.792C42.0334 140.982 41.4678 138.816 37.6539 138.816C34.2763 138.816 33.6784 140.497 33.3229 142.064H29.913C30.1877 139.252 31.9169 136.053 37.7832 136.053C42.7606 136.053 45.5241 138.105 45.5241 142.711V152.423H45.5402ZM42.0819 146.961H38.7851C34.7288 146.961 32.5633 148.076 32.5633 150.936C32.5633 153.07 34.0016 154.589 36.5388 154.589C41.4354 154.589 42.0819 151.292 42.0819 147.607V146.961Z" fill="#B31F3C"></path>
<path d="M49.9522 136.521H53.4913V130.51H56.982V136.521H61.4747V139.366H56.982V151.276C56.982 153.28 57.4668 154.282 59.3091 154.282C59.7939 154.282 60.505 154.249 61.0706 154.12V156.771C60.2303 157.094 59.0183 157.126 58.0163 157.126C54.8488 157.126 53.4752 155.478 53.4752 152.116V139.366H49.936V136.521H49.9522Z" fill="#B31F3C"></path>
<path d="M66.436 131.802V127.423H69.9752V131.802H66.436ZM66.436 136.521H69.9752V156.867H66.436V136.521Z" fill="#B31F3C"></path>
<path d="M94.6847 146.638C94.6847 152.536 91.3072 157.352 85.1015 157.352C79.2837 157.352 75.7607 152.86 75.7607 146.719C75.7607 140.578 79.2029 136.053 85.3439 136.053C91.0001 136.053 94.6847 140.271 94.6847 146.638ZM79.3645 146.686C79.3645 151.179 81.6109 154.427 85.2631 154.427C88.9154 154.427 91.0809 151.34 91.0809 146.719C91.0809 142.097 88.9962 138.978 85.1823 138.978C81.3684 138.978 79.3645 142.064 79.3645 146.686Z" fill="#B31F3C"></path>
<path d="M100.503 141.66C100.503 139.899 100.503 138.089 100.47 136.521H103.88C103.993 137.119 104.042 139.252 104.042 139.85C104.85 138.121 106.482 136.036 110.425 136.036C114.368 136.036 117.245 138.364 117.245 143.777V156.851H113.722V144.214C113.722 141.127 112.526 139.075 109.423 139.075C105.577 139.075 104.042 142 104.042 146.088V156.835H100.503V141.628V141.66Z" fill="#B31F3C"></path>
<path d="M139.385 152.423C139.385 154.314 139.547 156.269 139.66 156.884H136.282C136.121 156.447 136.007 155.478 135.959 154.233C135.232 155.558 133.599 157.368 129.656 157.368C124.84 157.368 122.788 154.233 122.788 151.147C122.788 146.605 126.36 144.521 132.42 144.521H135.878V142.792C135.878 140.982 135.312 138.816 131.499 138.816C128.121 138.816 127.523 140.497 127.168 142.064H123.758C124.032 139.252 125.762 136.053 131.628 136.053C136.605 136.053 139.369 138.105 139.369 142.711V152.423H139.385ZM135.927 146.961H132.63C128.574 146.961 126.408 148.076 126.408 150.936C126.408 153.07 127.846 154.589 130.384 154.589C135.28 154.589 135.927 151.292 135.927 147.607V146.961Z" fill="#B31F3C"></path>
<path d="M146.689 156.867V127.423H150.229V156.867H146.689Z" fill="#B31F3C"></path>
<path d="M173.322 148.48L170.316 156.868H166.631L176.586 128.942H181.127L191.519 156.868H187.543L184.456 148.48H173.338H173.322ZM183.519 145.313C180.836 137.976 179.382 134.081 178.784 131.948H178.752C178.073 134.307 176.425 139.042 174.291 145.313H183.519Z" fill="#B31F3C"></path>
<path d="M198.888 151.05C199.453 153.264 201.102 154.573 203.865 154.573C206.839 154.573 208.002 153.296 208.002 151.438C208.002 149.579 207.081 148.626 203.186 147.705C197.369 146.299 196.173 144.489 196.173 141.725C196.173 138.962 198.306 136.021 203.51 136.021C208.713 136.021 210.927 139.075 211.17 141.871H207.792C207.469 140.594 206.467 138.735 203.38 138.735C200.536 138.735 199.647 140.093 199.647 141.418C199.647 142.937 200.488 143.713 204.221 144.586C210.394 146.072 211.638 148.109 211.638 151.131C211.638 154.702 208.794 157.304 203.736 157.304C198.678 157.304 195.866 154.654 195.349 151.001H198.888V151.05Z" fill="#B31F3C"></path>
<path d="M219.379 151.05C219.945 153.264 221.593 154.573 224.357 154.573C227.33 154.573 228.494 153.296 228.494 151.438C228.494 149.579 227.573 148.626 223.678 147.705C217.86 146.299 216.665 144.489 216.665 141.725C216.665 138.962 218.798 136.021 224.001 136.021C229.205 136.021 231.419 139.075 231.662 141.871H228.284C227.961 140.594 226.959 138.735 223.872 138.735C221.028 138.735 220.139 140.093 220.139 141.418C220.139 142.937 220.979 143.713 224.712 144.586C230.886 146.072 232.13 148.109 232.13 151.131C232.13 154.702 229.286 157.304 224.228 157.304C219.169 157.304 216.357 154.654 215.84 151.001H219.379V151.05Z" fill="#B31F3C"></path>
<path d="M255.498 146.638C255.498 152.536 252.12 157.352 245.915 157.352C240.097 157.352 236.574 152.86 236.574 146.719C236.574 140.578 240.016 136.053 246.157 136.053C251.813 136.053 255.498 140.271 255.498 146.638ZM240.161 146.686C240.161 151.179 242.408 154.427 246.06 154.427C249.712 154.427 251.878 151.34 251.878 146.719C251.878 142.097 249.793 138.978 245.979 138.978C242.165 138.978 240.161 142.064 240.161 146.686Z" fill="#B31F3C"></path>
<path d="M277.59 150.646C276.749 154.136 274.374 157.352 269.202 157.352C263.578 157.352 260.136 153.344 260.136 146.799C260.136 141.062 263.384 136.053 269.445 136.053C275.505 136.053 277.347 140.222 277.59 142.84H274.099C273.614 140.788 272.337 138.994 269.364 138.994C265.792 138.994 263.74 142.08 263.74 146.702C263.74 151.324 265.712 154.443 269.235 154.443C271.756 154.443 273.242 153.086 274.083 150.678H277.573L277.59 150.646Z" fill="#B31F3C"></path>
<path d="M283.407 131.802V127.423H286.946V131.802H283.407ZM283.407 136.521H286.946V156.867H283.407V136.521Z" fill="#B31F3C"></path>
<path d="M309.086 152.423C309.086 154.314 309.248 156.269 309.361 156.884H305.983C305.822 156.447 305.709 155.478 305.66 154.233C304.933 155.558 303.301 157.368 299.357 157.368C294.542 157.368 292.489 154.233 292.489 151.147C292.489 146.605 296.061 144.521 302.121 144.521H305.579V142.792C305.579 140.982 305.014 138.816 301.2 138.816C297.822 138.816 297.224 140.497 296.869 142.064H293.459C293.734 139.252 295.463 136.053 301.329 136.053C306.307 136.053 309.07 138.105 309.07 142.711V152.423H309.086ZM305.644 146.961H302.347C298.291 146.961 296.125 148.076 296.125 150.936C296.125 153.07 297.564 154.589 300.101 154.589C304.997 154.589 305.644 151.292 305.644 147.607V146.961Z" fill="#B31F3C"></path>
<path d="M313.514 136.521H317.053V130.51H320.544V136.521H325.037V139.366H320.544V151.276C320.544 153.28 321.029 154.282 322.871 154.282C323.356 154.282 324.067 154.249 324.633 154.12V156.771C323.792 157.094 322.58 157.126 321.578 157.126C318.411 157.126 317.037 155.478 317.037 152.116V139.366H313.498V136.521H313.514Z" fill="#B31F3C"></path>
<path d="M329.998 131.802V127.423H333.537V131.802H329.998ZM329.998 136.521H333.537V156.867H329.998V136.521Z" fill="#B31F3C"></path>
<path d="M358.247 146.638C358.247 152.536 354.869 157.352 348.664 157.352C342.846 157.352 339.323 152.86 339.323 146.719C339.323 140.578 342.765 136.053 348.906 136.053C354.562 136.053 358.247 140.271 358.247 146.638ZM342.91 146.686C342.91 151.179 345.157 154.427 348.809 154.427C352.461 154.427 354.627 151.34 354.627 146.719C354.627 142.097 352.542 138.978 348.728 138.978C344.914 138.978 342.91 142.064 342.91 146.686Z" fill="#B31F3C"></path>
<path d="M364.065 141.66C364.065 139.899 364.065 138.089 364.032 136.521H367.442C367.555 137.119 367.604 139.252 367.604 139.85C368.412 138.121 370.044 136.036 373.987 136.036C377.93 136.036 380.807 138.364 380.807 143.777V156.851H377.284V144.214C377.284 141.127 376.088 139.075 372.985 139.075C369.139 139.075 367.604 142 367.604 146.088V156.835H364.065V141.628V141.66Z" fill="#B31F3C"></path>
<path d="M416.893 146.638C416.893 152.536 413.516 157.352 407.31 157.352C401.492 157.352 397.969 152.86 397.969 146.719C397.969 140.578 401.411 136.053 407.552 136.053C413.209 136.053 416.893 140.271 416.893 146.638ZM401.573 146.686C401.573 151.179 403.819 154.427 407.472 154.427C411.124 154.427 413.289 151.34 413.289 146.719C413.289 142.097 411.205 138.978 407.391 138.978C403.577 138.978 401.573 142.064 401.573 146.686Z" fill="#B31F3C"></path>
<path d="M423.551 156.867V139.382H420.303V136.538H423.551V134.097C423.551 130.364 424.989 127.035 429.482 127.035C430.241 127.035 431.243 127.116 431.728 127.278V130.283C431.243 130.17 430.484 130.089 429.967 130.089C427.882 130.089 427.074 131.366 427.074 134.34V136.554H431.163V139.398H427.074V156.884H423.551V156.867Z" fill="#B31F3C"></path>
<path d="M0.517629 171.881H11.5068C19.5386 171.881 24.8231 177.182 24.8231 185.359C24.8231 193.536 19.684 199.515 11.2159 199.515H0.501465V171.881H0.517629ZM6.49702 194.7H10.9896C16.2903 194.7 18.6497 190.724 18.6497 185.359C18.6497 180.818 16.4357 176.697 11.022 176.697H6.48086V194.716L6.49702 194.7Z" fill="#B31F3C"></path>
<path d="M37.1858 190.368C37.1858 192.97 38.511 195.507 41.3552 195.507C43.7632 195.507 44.4419 194.538 45.0075 193.293H50.7445C50.0173 195.814 47.7386 200 41.2421 200C34.3739 200 31.4165 194.909 31.4165 189.447C31.4165 182.902 34.7456 178.248 41.4522 178.248C48.5467 178.248 51.0031 183.419 51.0031 188.591C51.0031 189.318 51.0031 189.754 50.9223 190.352H37.202L37.1858 190.368ZM45.2176 186.845C45.1853 184.437 44.2157 182.385 41.4037 182.385C38.5918 182.385 37.5575 184.276 37.3151 186.845H45.2176Z" fill="#B31F3C"></path>
<path d="M58.5821 184.001C58.5821 182.24 58.5821 180.317 58.5498 178.749H64.1252C64.2383 179.315 64.3191 180.753 64.3676 181.399C65.0463 180.123 66.727 178.264 70.3793 178.264C74.5487 178.264 77.2475 181.108 77.2475 186.328V199.531H71.5105V186.975C71.5105 184.615 70.751 182.918 68.1815 182.918C65.6119 182.918 64.3676 184.276 64.3676 187.977V199.531H58.5983V184.001H58.5821Z" fill="#B31F3C"></path>
<path d="M83.4536 178.733H86.6696V173.109H92.4066V178.733H96.4952V183.064H92.4066V193.342C92.4066 194.91 92.8914 195.508 94.6205 195.508C94.9438 195.508 95.5094 195.507 95.8972 195.475V199.402C94.7822 199.806 93.2146 199.806 92.051 199.806C87.9947 199.806 86.6696 197.641 86.6696 193.988V183.08H83.4536V178.749V178.733Z" fill="#B31F3C"></path>
<path d="M120.558 194.15C120.558 196.154 120.719 199.047 120.833 199.531H115.338C115.176 199.127 115.063 198.012 115.063 197.479C114.304 198.643 112.898 200 109.213 200C104.203 200 102.119 196.703 102.119 193.504C102.119 188.769 105.884 186.571 111.993 186.571H114.966V185.326C114.966 183.84 114.449 182.401 111.75 182.401C109.342 182.401 108.777 183.403 108.534 184.922H103.072C103.347 181.238 105.642 178.264 111.977 178.264C117.52 178.296 120.558 180.478 120.558 185.439V194.15ZM114.95 190.045H112.623C109.132 190.045 107.856 191.128 107.856 193.132C107.856 194.619 108.777 195.895 110.862 195.895C114.514 195.895 114.95 193.326 114.95 190.595V190.029V190.045Z" fill="#B31F3C"></path>
<path d="M129.269 199.515V170.232H135.038V199.515H129.269Z" fill="#B31F3C"></path>
<path d="M157.678 171.881H163.658V194.635H177.459L176.78 199.532H157.678V171.897V171.881Z" fill="#B31F3C"></path>
<path d="M201.684 194.15C201.684 196.154 201.845 199.047 201.959 199.531H196.464C196.302 199.127 196.189 198.012 196.189 197.479C195.43 198.643 194.024 200 190.339 200C185.329 200 183.245 196.703 183.245 193.504C183.245 188.769 187.01 186.571 193.119 186.571H196.092V185.326C196.092 183.84 195.575 182.401 192.876 182.401C190.468 182.401 189.903 183.403 189.66 184.922H184.198C184.473 181.238 186.768 178.264 193.103 178.264C198.646 178.296 201.684 180.478 201.684 185.439V194.15ZM196.076 190.045H193.749C190.258 190.045 188.982 191.128 188.982 193.132C188.982 194.619 189.903 195.895 191.987 195.895C195.64 195.895 196.076 193.326 196.076 190.595V190.029V190.045Z" fill="#B31F3C"></path>
<path d="M210.394 170.232H216.164V180.947C217.004 179.622 218.733 178.264 222.094 178.264C227.751 178.264 230.563 182.951 230.563 188.769C230.563 194.586 227.508 200 221.529 200C218.442 200 217.069 199.079 216.067 197.56C216.067 198.239 215.953 198.998 215.824 199.531H210.33C210.362 197.285 210.362 194.99 210.362 192.744V170.232H210.394ZM220.349 182.87C217.052 182.87 215.889 185.003 215.889 189.253C215.889 192.744 216.939 195.427 220.268 195.427C223.193 195.427 224.761 192.825 224.761 188.882C224.761 185.391 223.436 182.87 220.349 182.87Z" fill="#B31F3C"></path>
<path d="M257.615 189.092C257.615 195.394 253.85 200 247.256 200C240.663 200 237.059 195.394 237.059 189.205C237.059 183.015 240.954 178.248 247.531 178.248C253.624 178.248 257.599 182.579 257.599 189.075L257.615 189.092ZM242.893 189.124C242.893 193.132 244.622 195.507 247.386 195.507C250.149 195.507 251.798 193.148 251.798 189.172C251.798 184.841 250.198 182.789 247.305 182.789C244.655 182.789 242.893 184.761 242.893 189.124Z" fill="#B31F3C"></path>
<path d="M265.082 184.389C265.082 182.304 265.082 180.494 265.05 178.733H270.706C270.787 179.218 270.868 181.254 270.868 182.385C271.789 180.026 274.003 178.296 277.526 178.248V183.743C273.356 183.629 270.868 184.744 270.868 190.449V199.515H265.098V184.389H265.082Z" fill="#B31F3C"></path>
<path d="M300.99 194.15C300.99 196.154 301.152 199.047 301.265 199.531H295.77C295.608 199.127 295.495 198.012 295.495 197.479C294.736 198.643 293.33 200 289.645 200C284.635 200 282.551 196.703 282.551 193.504C282.551 188.769 286.316 186.571 292.425 186.571H295.398V185.326C295.398 183.84 294.881 182.401 292.182 182.401C289.775 182.401 289.209 183.403 288.967 184.922H283.504C283.779 181.238 286.074 178.264 292.409 178.264C297.952 178.296 300.99 180.478 300.99 185.439V194.15ZM295.366 190.045H293.039C289.548 190.045 288.272 191.128 288.272 193.132C288.272 194.619 289.193 195.895 291.277 195.895C294.93 195.895 295.366 193.326 295.366 190.595V190.029V190.045Z" fill="#B31F3C"></path>
<path d="M307.292 178.733H310.508V173.109H316.245V178.733H320.334V183.064H316.245V193.342C316.245 194.91 316.73 195.508 318.459 195.508C318.783 195.508 319.348 195.507 319.736 195.475V199.402C318.621 199.806 317.053 199.806 315.89 199.806C311.834 199.806 310.508 197.641 310.508 193.988V183.08H307.292V178.749V178.733Z" fill="#B31F3C"></path>
<path d="M346.321 189.092C346.321 195.394 342.555 200 335.962 200C329.368 200 325.765 195.394 325.765 189.205C325.765 183.015 329.659 178.248 336.237 178.248C342.329 178.248 346.305 182.579 346.305 189.075L346.321 189.092ZM331.599 189.124C331.599 193.132 333.328 195.507 336.091 195.507C338.855 195.507 340.503 193.148 340.503 189.172C340.503 184.841 338.903 182.789 336.01 182.789C333.36 182.789 331.599 184.761 331.599 189.124Z" fill="#B31F3C"></path>
<path d="M353.787 184.389C353.787 182.304 353.787 180.494 353.754 178.733H359.411C359.491 179.218 359.572 181.254 359.572 182.385C360.493 180.026 362.707 178.296 366.23 178.248V183.743C362.061 183.629 359.572 184.744 359.572 190.449V199.515H353.787V184.389Z" fill="#B31F3C"></path>
<path d="M372.969 175.371V170.232H378.739V175.371H372.969ZM372.969 178.733H378.739V199.515H372.969V178.733Z" fill="#B31F3C"></path>
<path d="M391.991 190.368C391.991 192.97 393.316 195.507 396.16 195.507C398.568 195.507 399.247 194.538 399.812 193.293H405.549C404.822 195.814 402.543 200 396.047 200C389.179 200 386.221 194.909 386.221 189.447C386.221 182.902 389.55 178.248 396.257 178.248C403.351 178.248 405.808 183.419 405.808 188.591C405.808 189.318 405.808 189.754 405.727 190.352H392.007L391.991 190.368ZM400.006 186.845C399.974 184.437 399.004 182.385 396.192 182.385C393.38 182.385 392.346 184.276 392.104 186.845H400.006Z" fill="#B31F3C"></path>
<path d="M417.588 193.261C418.025 194.942 419.398 195.863 421.515 195.863C423.632 195.863 424.408 195.103 424.408 193.811C424.408 192.518 423.519 191.968 420.562 191.241C413.774 189.56 412.692 187.476 412.692 184.534C412.692 181.593 414.825 178.232 421.079 178.232C427.333 178.232 429.547 181.674 429.709 184.486H424.246C424.053 183.726 423.519 182.272 420.837 182.272C418.946 182.272 418.316 183.112 418.316 184.033C418.316 185.084 418.962 185.553 422.323 186.361C429.256 187.96 430.274 190.336 430.274 193.374C430.274 196.816 427.624 199.952 421.321 199.952C415.019 199.952 412.417 196.897 411.932 193.213H417.588V193.261Z" fill="#B31F3C"></path>
<path d="M477.852 27.2601C517.235 15.1074 567.219 9.03103 605.956 25.7087C617.172 30.5407 627.498 37.7806 634.867 47.5254C654.47 73.4469 648.022 109.889 626.9 132.514C600.219 161.102 557.41 171.04 520.241 176.179C513.954 177.052 507.652 177.763 501.349 178.361C501.349 178.361 488.243 177.391 487.483 189.447C487.483 189.447 488.841 202.715 505.567 198.788C505.567 198.788 677.176 178.393 658.316 66.6595C652.159 30.2175 612.146 10.9703 579.776 4.31216C548.667 -2.08741 516.184 -0.568323 484.898 3.71422C477.949 4.66769 469.917 4.95858 463.84 8.85326C458.653 12.1823 455.469 18.5173 459.703 23.6725C463.937 28.8277 471.694 28.8115 477.819 27.2601H477.852Z" fill="url(#svg-158490612_19844_paint0_linear_241_385)"></path>
<defs>
<linearGradient id="svg-158490612_19844_paint0_linear_241_385" x1="496.081" y1="11.4551" x2="619.127" y2="192.744" gradientUnits="userSpaceOnUse">
<stop offset="0.24" stop-color="#9E9FA1"></stop>
<stop offset="0.43" stop-color="white"></stop>
<stop offset="0.81" stop-color="#C33C61"></stop>
</linearGradient>
</defs>
</svg></defs><use href="#svg-158490612_19844"></use></svg>