<svg style="width:100%;height:100%;" viewBox="0 0 497 200" preserveAspectRatio="none" width="100%" height="100%" xmlns="http://www.w3.org/2000/svg"><defs><svg width="497" height="200" viewBox="0 0 497 200" fill="none" id="svg-1286569452_21014">
<path d="M288.659 116.345C290.282 119.034 290.891 122.146 292.143 124.987C293.597 128.285 295.136 131.533 297.775 134.086C302.375 138.551 307.804 140.04 313.943 138.112C319.964 136.217 322.687 131.448 323.719 125.647C324.937 118.814 323.009 112.996 317.732 108.277C313.233 104.252 307.956 101.512 302.781 98.5861C298.992 96.4551 295.238 94.2733 291.686 91.7195C276.464 80.8275 281.031 63.2549 290.891 55.2889C298.874 48.8451 308.058 46.8494 318.053 47.8134C322.011 48.2024 325.918 48.7774 329.757 49.9444C331.804 50.5702 332.971 51.7372 333.19 53.902C333.715 58.8068 333.529 63.7285 333.343 68.6333C333.292 70.1554 332.717 71.6438 330.856 71.9989C328.878 72.371 327.829 71.204 327.152 69.6142C326.087 67.0942 325.224 64.4896 324.125 61.9864C320.726 54.1727 312.81 50.5364 304.692 52.9888C295.221 55.8471 292.87 68.4641 300.396 75.9396C304.016 79.5252 308.497 81.7915 312.861 84.2608C317.563 86.8993 322.315 89.4193 326.713 92.5482C343.981 104.844 340.649 129.571 322.687 139.059C313.605 143.862 303.948 144.843 294.037 142.78C284.616 140.818 275.111 140.818 265.589 140.767C262.19 140.75 258.807 141.19 255.408 141.376C253.666 141.477 252.499 140.733 252.228 138.704C253.547 135.778 257.488 137.029 259.281 134.543C259.839 133.258 259.72 131.905 259.01 130.585C257.978 128.674 256.981 126.746 255.898 124.852C249.607 113.994 243.281 103.153 236.82 92.0069C233.235 95.2373 229.818 98.2986 226.233 101.529C226.419 110.916 225.979 120.336 226.503 129.774C226.656 132.53 228.398 134.019 230.664 135C232.998 136.015 235.4 136.86 237.683 137.74C238.241 140.733 237.7 141.494 234.74 141.376C226.994 141.071 219.265 140.294 211.502 140.835C207.662 141.105 203.823 141.799 200.119 141.19C199.02 140.091 199.206 138.974 199.51 137.638C202.301 135.592 206.58 136.488 209.049 133.444C211.248 131.431 210.402 128.708 210.588 126.29C210.673 125.207 210.487 124.04 210.487 122.907C210.487 91.4996 210.453 60.1091 210.521 28.7017C210.521 25.6912 210.335 22.6977 210.385 19.6871C210.436 16.3215 207.984 13.6999 204.567 13.0572C203.214 12.8036 201.641 12.9558 200.897 10.9939C201.726 8.08483 205.227 9.62393 206.783 7.86498C213.176 6.0722 218.994 2.99405 224.88 0.0173651C225.049 -0.0671997 225.387 0.169573 226.233 0.457093V92.6328C228.398 91.7026 229.446 90.4679 230.546 89.3855C238.681 81.3349 246.799 73.2505 254.9 65.183C256.169 63.9145 257.454 62.6292 258.266 61.0055C259.585 58.3333 258.79 56.3713 255.898 55.5933C253.902 55.069 251.805 54.883 249.759 54.5447C248.338 54.308 246.934 54.0035 246.528 52.2277C247.087 50.3503 248.609 49.9613 250.3 50.0121C253.327 50.1136 256.338 50.2827 259.365 50.4687C266.553 50.9084 273.741 50.7055 280.912 50.0966C282.384 49.9782 283.923 49.6231 285.31 50.4349C285.936 51.2467 285.902 52.0416 285.428 52.8704C284.058 54.0374 282.282 54.0374 280.659 54.4433C276.058 55.5595 271.932 57.5214 268.515 60.8533C261.818 67.3817 255.154 73.9609 248.558 80.4216C249.031 82.5865 250.232 83.838 251.078 85.2756C259.771 100.007 268.464 114.738 277.259 129.402C278.545 131.533 279.695 133.917 282.215 135.034C283.094 132.852 282.485 130.602 282.57 128.387C282.688 124.987 282.621 121.571 282.587 118.171C282.587 116.294 283.128 114.687 284.295 113.52C287.103 112.81 287.119 115.601 288.608 116.362L288.659 116.345Z" fill="#065493"></path>
<path d="M413.121 61.8342C413.171 59.8046 414.694 59.2972 416.08 58.7729C423.285 56.0161 430.135 52.6843 435.852 47.3736C436.765 46.528 437.78 46.2573 439.386 46.9169C440.012 52.0247 439.336 57.3861 439.775 63.2211C442.515 60.1598 444.866 57.3861 447.352 54.7815C454.405 47.3905 462.98 45.8684 472.333 49.1157C481.331 52.2446 484.73 59.737 485.051 68.4302C485.542 81.5547 485.322 94.713 485.373 107.854C485.407 114.569 485.322 121.283 485.373 127.998C485.407 133.9 486.438 135.152 492.206 136.64C494.049 137.114 496.299 137.131 496.502 139.803C495.47 141.917 493.609 141.494 491.986 141.325C485.102 140.598 478.202 140.53 471.301 140.835C468.274 140.97 465.297 141.579 462.253 141.41C461.103 141.342 459.97 141.359 459.107 140.378C458.6 139.482 458.667 138.602 459.361 137.706C460.883 136.606 462.777 136.234 464.57 135.71C467.817 134.746 469.086 132.598 469.069 129.385C469.069 127.118 469.103 124.852 469.103 122.569C469.103 107.347 469.103 92.1084 469.103 76.8867C469.103 74.3328 469.069 71.779 468.68 69.2421C467.969 64.6587 466.481 60.4812 461.813 58.5869C456.773 56.5574 451.818 57.3015 447.623 60.6672C442.583 64.7094 439.471 69.7833 439.556 76.7007C439.775 93.4445 439.623 110.188 439.64 126.915C439.64 133.308 440.689 134.695 446.828 136.725C448.08 137.131 449.365 137.469 450.464 138.416C451.124 140.547 450.126 141.46 448.097 141.376C444.985 141.257 441.873 140.936 438.761 140.818C432.046 140.564 425.332 140.53 418.634 141.257C416.655 141.477 414.491 141.968 412.732 140.733C412.123 139.803 412.173 138.974 412.444 138.129C413.713 136.454 415.725 136.353 417.501 135.828C421.78 134.56 423.167 132.919 423.184 128.573C423.218 108.903 423.218 89.2332 423.184 69.5634C423.184 65.5381 421.983 64.3542 417.941 63.5255C416.3 63.1872 414.254 63.7284 413.154 61.8511L413.121 61.8342Z" fill="#065493"></path>
<path d="M34.744 30.6975C34.6087 30.0548 34.4565 29.4121 34.3381 28.7525C33.2726 23.2896 31.1923 21.4461 25.5095 21.0571C22.9895 20.8711 20.4356 20.8203 18.2708 19.8394C17.5266 18.6047 17.5773 17.6237 18.1693 16.5413C19.776 15.1714 21.8225 15.3405 23.7675 15.4251C35.3867 15.9156 47.0059 16.7104 58.6589 15.831C60.8238 15.6618 63.0056 15.4082 65.1704 15.4251C68.0456 15.4589 68.8405 16.406 68.6376 19.2643C67.2169 21.0063 65.0182 20.6174 63.1578 20.888C55.8345 21.9535 54.1432 23.7293 54.1432 31.171C54.1094 62.1894 54.0079 93.2247 54.1432 124.243C54.2278 142.577 46.8199 157.562 34.3043 170.314C29.3149 175.405 23.2263 178.804 15.9706 179.735C13.0954 180.107 10.2879 179.988 7.54795 179.21C3.70871 178.111 1.15486 175.574 0.343037 171.582C-0.519524 167.354 0.14009 163.43 3.52268 160.42C7.48032 156.902 13.9411 157.9 16.8332 162.534C17.9156 164.276 18.5752 166.289 19.404 168.2C19.9959 169.587 20.3849 171.092 22.1777 171.819C25.3911 171.752 27.2347 169.418 28.8076 166.948C32.021 161.908 33.4079 156.225 34.1521 150.357C34.3381 148.868 34.558 147.363 34.7609 145.875C35.3021 144.995 35.0484 144.031 35.0484 143.101C35.0484 106.552 35.0484 70.0201 35.0484 33.4712C35.0484 32.541 35.2852 31.5769 34.7778 30.6975H34.744Z" fill="#065493"></path>
<path d="M199.139 117.63C200.965 119.068 200.779 121.013 200.204 122.991C197.786 131.262 192.12 136.776 184.61 140.412C169.524 147.718 152.019 143.27 142.024 129.841C129.626 113.165 128.239 83.8887 139.334 66.4007C148.383 52.1431 161.727 46.4265 178.353 47.8472C182.885 48.2362 187.367 48.9296 191.663 50.5026C195.485 51.8894 196.551 53.4115 196.568 57.4876C196.602 62.2232 196.602 66.9419 196.483 71.6776C196.432 73.6226 196.399 75.9396 193.946 76.5316C191.426 77.1404 189.008 76.6669 187.367 74.3667C184.949 70.9672 183.223 67.1787 181.211 63.5255C179.942 61.2084 178.742 58.8406 177.321 56.625C174.53 52.2784 171.08 51.3143 166.395 53.4792C162.302 55.3734 159.376 58.5869 157.025 62.3078C152.459 69.5465 150.615 77.6309 150.26 86.0366C149.753 98.1125 151.545 109.782 157.431 120.573C158.886 123.245 160.662 125.681 162.843 127.812C172.095 136.894 185.405 135.558 192.61 124.784C193.811 122.975 194.893 121.08 196.027 119.237C196.72 118.121 197.566 117.309 199.139 117.647V117.63Z" fill="#065493"></path>
<path d="M428.985 167.896C427.176 167.067 425.434 167.879 423.945 165.917C427.835 164.919 431.471 166.153 435.395 165.206C438.609 173.037 441.771 180.783 445.12 188.918C448.249 181.02 451.243 173.443 454.202 165.917H465.856C463.911 167.523 462.084 166.745 460.68 168.318C460.579 177.739 461.204 187.481 461.543 196.749C462.963 198.204 464.705 197.223 465.534 198.593C464.063 199.726 452.291 199.81 450.465 198.643C451.48 197.223 453.441 198.119 454.778 196.648V172.022C454.608 171.971 454.439 171.921 454.287 171.887C450.769 180.851 447.251 189.798 443.733 198.762C443.412 198.829 443.091 198.897 442.769 198.948C440.165 195.058 438.981 190.44 437.087 186.195C435.125 181.815 433.4 177.333 431.488 172.699C429.882 178.179 429.966 194.584 431.522 197.29C432.706 198.203 434.567 197.138 435.666 198.576C434.11 199.759 424.859 199.81 423.049 198.626C423.996 197.426 425.552 197.882 427.294 196.85C428.647 187.565 428.935 177.756 428.968 167.912L428.985 167.896Z" fill="white"></path>
<path d="M77.212 168.69C75.8589 166.897 73.7787 167.929 72.6455 165.866H88.2561C87.3598 168.014 85.0934 166.881 83.825 168.521V180.056C88.5606 180.326 93.3977 180.276 98.4885 180.056C98.7929 175.844 99.1988 171.87 98.2686 168.301C96.8987 166.965 95.0213 167.912 94.2264 166.356C95.6471 165.257 107.622 165.223 109.211 166.356C108.433 167.794 106.827 167.168 105.744 167.76C104.137 170.162 104.036 194.499 105.626 197.172C106.657 198 108.315 197.172 109.211 198.457C108.061 199.624 96.3405 199.895 94.1587 198.795C94.8691 196.986 97.0509 198.22 98.4378 196.208C99.2665 192.25 98.5392 187.481 98.7929 182.525H83.7404V196.326C84.8736 198.237 87.123 197.003 88.087 198.575C86.8524 199.607 75.0809 199.861 72.8653 198.88C73.5419 196.8 76.1972 198.356 77.195 195.988V168.69H77.212Z" fill="white"></path>
<path d="M237.835 196.833C239.678 197.831 241.201 197.341 242.199 198.457C240.643 199.776 228.431 199.759 226.977 198.542C227.772 197.087 229.463 198.017 230.935 197.206C231.746 187.464 231.729 177.705 231.273 168.504C229.615 166.999 227.738 167.946 226.96 166.339C228.313 165.358 240.287 165.24 242.182 166.238C241.387 167.811 239.594 167.084 238.004 168.217C236.989 171.718 237.835 175.726 237.598 179.988C242.672 180.428 247.509 180.242 252.651 180.123C252.634 175.811 253.26 171.819 252.296 168.284C250.824 167.016 248.964 167.946 247.966 165.849H263.644C262.426 167.828 260.465 167.05 259.128 168.454V196.563C260.515 198.136 262.426 197.053 263.289 198.525C262.139 199.709 249.979 199.895 248.101 198.694C248.879 197.239 250.52 197.967 252.16 196.867C253.581 192.554 252.296 187.599 252.854 182.525H237.632C237.666 187.464 237.294 192.301 237.835 196.867V196.833Z" fill="white"></path>
<path d="M395.769 199.151C396.767 197.121 398.576 198.001 399.98 196.478V168.487C398.576 166.881 396.479 168.048 395.549 165.815H420.901C421.307 167.997 421.223 170.449 420.597 173.409C417.586 167.185 412.411 167.27 406.779 167.777C405.916 171.938 406.255 175.828 406.39 179.768C408.826 180.766 411.041 180.293 413.274 180.073C416.014 179.802 416.013 177.012 417.942 175.134V188.005C415.405 186.77 416.098 183.337 413.477 182.694C411.227 182.136 409.028 182.272 406.407 182.474C406.322 187.244 405.781 191.794 406.914 196.428C413.646 198.931 418.55 197.104 421.713 190.322C422.66 193.536 421.713 196.123 421.51 199.37C412.851 199.979 404.31 198.829 395.769 199.117V199.151Z" fill="white"></path>
<path d="M324.345 196.309C325.715 198.17 327.795 196.884 328.692 198.491C327.389 199.709 315.364 199.878 313.419 198.66C314.231 197.104 316.091 198.051 317.631 196.631C318.696 195.481 317.817 193.383 318.087 191.472C318.73 186.889 317.394 182.999 314.366 179.532C312.996 177.976 311.948 176.149 310.781 174.441C308.498 171.075 306.671 167.185 301.546 166.796C303.153 165.477 316.159 165.189 318.307 166.103C317.58 167.963 315.686 167.084 314.18 167.946C316.514 172.8 320.049 176.91 322.975 181.883C325.597 176.995 329.317 173.223 330.907 168.369C329.554 166.796 327.542 168.065 326.578 166.576C327.761 165.274 337.334 165.122 339.11 166.424C330.907 169.282 328.337 177.181 324.633 183.591C322.569 187.143 323.939 192.402 324.379 196.326L324.345 196.309Z" fill="white"></path>
<path d="M375.27 196.022V167.879C372.801 167.202 370.467 167.608 368.2 168.69C365.934 169.773 365.173 172.377 362.991 173.73C362.704 169.925 364.226 166.712 365.224 163.363C366.847 163.667 366.306 165.122 367.27 165.528C374.729 165.528 382.187 165.528 389.646 165.528C391.27 165.528 392.267 164.361 393.587 162.466C394.669 166.931 393.553 170.331 393.062 173.866C391.067 172.259 391.625 169.029 388.953 168.132C386.669 167.354 384.352 167.405 381.815 167.912V196.089C382.712 198.322 385.418 196.715 386.263 199.201H370.585C371.651 196.935 373.968 198.22 375.27 196.022Z" fill="white"></path>
<path d="M202.605 198.66C203.586 197.104 205.277 197.95 206.748 197.087C207.51 187.396 207.154 177.671 207.29 167.878C204.465 167.27 202.131 167.659 199.848 168.724C197.565 169.79 197.04 172.631 194.317 174.204C194.487 169.942 195.941 166.711 197.007 163.447C198.613 163.532 198.19 165.122 199.07 165.375H222.866C223.644 164.563 224.27 163.904 225.302 162.805C226.266 166.864 225.454 170.28 225.082 174.593C222.765 172.293 223.34 169.029 220.702 168.132C218.418 167.354 216.084 167.388 213.226 167.929C213.345 177.62 212.972 187.261 213.717 196.884C215.002 198.051 216.913 196.986 217.793 198.44C216.643 199.709 204.617 199.945 202.588 198.66H202.605Z" fill="white"></path>
<path d="M340.378 197.679C339.651 194.5 339.752 192.03 340.598 189.273C341.816 189.257 341.765 190.254 342.019 191.016C342.881 193.705 344.336 195.971 346.907 197.341C350.035 199.015 353.942 198.085 355.701 195.294C357.359 192.656 356.581 189.307 353.689 187.075C351.135 185.096 347.989 184.149 345.232 182.508C342.188 180.699 340.26 178.229 340.277 174.525C340.294 170.348 342.797 166.999 346.94 165.68C350.289 164.614 354.974 164.986 358.746 166.729C358.949 168.978 359.304 171.329 358.543 173.798C356.682 173.308 356.75 171.785 356.31 170.652C354.923 167.016 350.915 165.511 347.482 167.388C343.998 169.282 343.913 173.933 347.482 176.183C349.866 177.671 352.572 178.635 355.076 179.971C357.9 181.494 360.183 183.523 360.843 186.906C361.891 192.335 358.796 197.713 353.435 199.32C348.868 200.707 344.505 199.878 340.344 197.696L340.378 197.679Z" fill="white"></path>
<path d="M299.009 166.661C299.313 169.029 299.601 171.312 298.924 173.713C296.895 173.561 297.115 171.853 296.658 170.821C295.22 167.574 293.428 166.407 290.062 166.745C287.66 166.999 285.918 168.166 285.326 170.551C284.751 172.902 285.546 174.948 287.66 176.132C290.62 177.789 293.834 179.007 296.692 180.817C301.8 184.064 302.831 190.119 299.415 195.142C298.096 197.087 296.337 198.491 294.104 199.184C289.335 200.673 284.836 199.912 280.422 197.544C280.083 194.635 279.88 191.912 280.743 189.104C282.282 189.629 282.197 190.812 282.536 191.726C283.398 194.127 284.819 196.055 287.068 197.307C290.113 199.015 294.104 198.136 295.931 195.413C297.656 192.825 296.912 189.426 294.087 187.159C292.075 185.536 289.639 184.69 287.373 183.54C284.007 181.815 280.98 179.751 280.625 175.506C280.219 170.585 283.043 166.728 287.931 165.494C291.111 164.682 295.356 165.105 299.026 166.661H299.009Z" fill="white"></path>
<path d="M171.638 199.354C171.638 198.914 171.638 198.474 171.638 198.034C173.447 198.102 175.122 197.679 176.915 196.85V168.284C175.443 167.033 173.65 167.862 172.737 166.475C173.921 165.426 185.929 165.139 188.179 166.103C187.468 168.2 184.948 166.779 184.356 167.743C183.375 169.062 183.511 170.043 183.494 170.974C183.477 178.162 183.443 185.35 183.511 192.521C183.561 196.749 184.914 197.865 189.126 197.476C192.069 197.189 194.183 195.582 195.925 193.316C196.517 192.555 196.669 191.32 198.292 191.185C198.648 193.924 198.073 196.512 197.565 199.354H171.655H171.638Z" fill="white"></path>
<path d="M206.8 7.86499C205.852 8.98125 204.736 9.75923 203.163 9.67466C202.165 9.62392 201.557 10.0975 201.455 11.1461C201.895 12.1271 202.707 12.3808 203.721 12.5161C209.218 13.2433 211.349 16.0678 210.842 21.4799C210.605 23.983 210.774 26.52 210.774 29.04C210.774 60.2614 210.774 91.4658 210.774 122.687C210.774 125.478 211.011 128.268 210.909 131.042C210.876 132.057 211.163 133.816 209.066 133.461C209.81 131.583 210.013 129.638 210.013 127.643C210.013 93.4107 210.013 59.1789 209.979 24.9471C209.979 22.6807 209.692 20.4313 209.539 18.165C209.387 18.0635 209.353 17.9282 209.404 17.776C209.286 17.3701 209.15 16.9472 209.032 16.5413C208.88 16.3722 208.761 16.1862 208.694 15.9832C208.017 15.3236 207.358 14.6809 206.681 14.0213C206.512 13.9367 206.36 13.8522 206.208 13.7507C205.396 13.6154 204.584 13.4801 203.772 13.3448C203.62 13.3448 203.468 13.294 203.332 13.2264C202.69 13.2602 202.064 13.2264 201.523 12.8205C201.421 12.7528 201.32 12.6852 201.235 12.6175C199.764 11.8564 199.189 10.9262 200.694 9.62393C200.795 9.53936 200.897 9.47171 200.998 9.38715L202.182 9.03199C202.368 8.96434 202.554 8.87977 202.724 8.76138C203.299 8.67681 203.874 8.57533 204.449 8.49076C204.635 8.38928 204.821 8.32164 205.024 8.28781C205.616 8.16942 206.208 8.03412 206.8 7.91573V7.86499Z" fill="#234C7D"></path>
<path d="M34.7441 30.6975C35.6574 31.5432 35.2683 32.6594 35.2683 33.6404C35.2853 70.1724 35.2853 106.687 35.2683 143.219C35.2683 144.116 35.5897 145.131 34.7102 145.875C34.6933 140.395 34.6426 134.915 34.6426 129.435C34.6426 97.2838 34.6426 65.1323 34.6426 32.9808C34.6426 32.2197 34.6933 31.4755 34.7271 30.7144L34.7441 30.6975Z" fill="#284B75"></path>
<path d="M288.658 116.345C287.288 116.767 286.899 115.668 286.628 114.822C286.324 113.858 285.698 113.825 284.836 113.689C283.635 115.465 282.823 117.275 282.891 119.558C283.026 123.854 282.958 128.167 282.908 132.48C282.908 133.359 283.297 134.391 282.248 135.033C282.688 127.761 281.656 120.387 283.111 113.165C284.481 112.725 285.394 112.742 286.409 113.013C287.542 113.808 288.337 114.924 288.658 116.362V116.345Z" fill="#33517D"></path>
<path d="M135.985 124.835C132.941 124.328 132.264 126.814 130.996 128.421C128.222 131.938 124.281 131.685 122.1 127.761C121.558 126.797 121.254 125.664 121 124.564C120.07 120.455 120.561 116.277 120.544 112.117C120.493 94.6285 120.544 77.1236 120.493 59.6356C120.493 53.0903 118.041 49.7077 111.867 48.49C91.2673 44.4308 73.5256 53.1072 63.1918 70.1555C62.1094 71.9313 61.399 73.9101 61.1284 76.0073C60.6549 79.5929 62.5322 82.3158 66.0501 83.1784C70.4813 84.2608 75.2508 82.2313 77.8046 78.206C79.7327 75.1617 80.2232 71.7114 80.7644 68.2443C81.7961 61.6482 84.5022 56.067 91.0475 53.344C97.4913 50.6548 104.476 53.2425 104.155 61.8174C103.969 67.0097 104.07 72.2188 104.155 77.428C104.172 79.5252 103.546 81.3011 102.328 82.9586C99.7239 86.5272 96.2567 89.1656 92.7895 91.7871C84.9588 97.7236 76.6715 103.085 69.9063 110.341C63.5301 117.173 60.5196 124.92 63.6654 134.205C65.2383 138.839 68.5194 141.816 73.272 143C79.7327 144.606 85.8383 143.761 91.4196 139.938C94.9882 137.503 97.6943 134.239 100.367 130.907C101.145 129.926 101.703 128.607 103.411 128.353C105.457 131.262 106.472 134.797 108.738 137.604C111.106 140.547 114.032 142.441 117.804 142.864C121.542 143.287 124.907 142.171 128.019 140.175C134.531 135.947 138.133 129.08 135.968 124.835H135.985ZM102.041 121.655C101.517 123.33 100.586 124.953 99.5716 126.391C96.781 130.332 90.5739 132.091 86.3626 130.281C82.5234 128.624 80.1217 123.448 80.9504 118.493C82.2527 110.814 86.5994 104.793 91.6056 99.1781C94.1257 96.3536 96.8655 93.749 100.028 91.6349C101.145 90.9076 102.261 90.1635 103.529 90.9584C103.681 91.1613 103.783 91.229 103.8 91.3135C104.172 101.478 105.153 111.677 102.024 121.622L102.041 121.655Z" fill="#065493"></path>
<path d="M405.696 62.4092C391.202 43.1622 366.627 42.5703 351.338 61.09C336.167 79.4743 335.862 110.848 350.695 129.486C357.629 138.196 366.373 143.558 376.453 143.727C387.785 143.727 396.005 139.701 402.601 132.48C419.48 113.994 420.799 82.4849 405.679 62.4092H405.696ZM390.068 129.757C388.935 131.854 387.531 133.731 385.806 135.389C380.952 140.057 374.965 140.09 370.162 135.422C365.528 130.907 363.211 125.122 361.502 119.101C356.428 101.191 356.936 83.4658 363.684 66.0286C365.054 62.4768 366.948 59.1957 369.587 56.422C374.576 51.1283 381.307 51.0944 386.263 56.3882C391.354 61.8172 393.603 68.6331 395.345 75.6351C396.986 82.265 397.865 88.9964 397.781 95.8461C397.459 107.668 395.768 119.169 390.068 129.774V129.757Z" fill="#065493"></path>
<path d="M171.621 198.034C168.965 197.493 167.9 195.497 166.987 193.231C163.57 184.724 160.103 176.25 156.602 167.777C156.179 166.762 156.213 165.274 154.285 164.851C153.659 166.356 153 167.879 152.391 169.418C149.11 177.756 145.828 186.111 142.547 194.449C141.685 196.664 140.315 198.068 137.727 197.442C137.169 195.159 138.826 192.944 137.22 190.085C134.328 197.155 129.44 198.829 122.489 196.444C121.812 191.912 122.116 187.345 122.201 182.728C127.376 181.493 131.402 182.136 132.839 188.377C133.11 188.157 133.364 187.937 133.634 187.734V175.658C131.402 181.29 126.97 180.614 122.201 180.073C122.116 175.895 121.93 171.988 122.336 167.879C128.154 167.134 133.245 167.287 136.628 172.902V165.883H111.072C112.307 168.031 114.556 166.779 115.605 168.403V196.597C114.641 197.493 113.846 197.442 113.119 197.595C112.425 197.747 111.563 197.679 111.258 199.303C124.247 199.455 137.101 199.658 150.344 199.303C149.076 196.969 146.945 198.22 145.524 196.783C145.524 193.485 147.198 190.407 148.196 187.007C151.494 187.024 154.572 186.72 157.752 187.193C158.885 190.559 160.458 193.62 160.915 196.732C159.562 197.984 157.718 197.02 157.042 199.32H171.621C171.925 198.88 171.942 198.44 171.621 198V198.034ZM149.042 184.656C149.685 181.223 151.359 178.314 152.475 174.407C153.964 178.094 155.181 181.121 156.551 184.538C153.828 185.011 151.63 184.893 149.042 184.656Z" fill="white"></path>
</svg></defs><use href="#svg-1286569452_21014"></use></svg>