<svg style="width:100%;height:100%;" viewBox="0 0 2031 200" preserveAspectRatio="none" width="100%" height="100%" xmlns="http://www.w3.org/2000/svg"><defs><svg width="2031" height="200" viewBox="0 0 2031 200" fill="none" id="svg-328096993_19514">
<path d="M-0.00915527 153.741V0.922974H201.257V15.3616C198.014 15.6154 194.771 15.7564 191.556 16.123C171.816 18.3226 154.162 25.9931 137.834 36.9912C118.742 49.8505 103.289 66.2913 90.8243 85.5522C80.1928 101.965 68.6872 117.644 53.9102 130.644C41.7559 141.332 28.2195 149.482 12.0607 152.613C8.16902 153.374 4.22089 153.656 -0.00915527 153.741Z" fill="#E92428"></path>
<path d="M201.314 43.2516V195.985H0.0761719V181.631C3.06541 181.433 6.05477 181.32 9.0158 181.01C27.5716 179.036 44.3789 172.212 60.0301 162.285C81.2367 148.805 98.016 130.955 111.524 109.945C121.253 94.8018 131.969 80.476 145.336 68.2653C157.208 57.4082 170.378 48.807 186.283 45.0564C191.162 43.9002 196.068 43.308 201.314 43.2798V43.2516Z" fill="#1173B7"></path>
<path d="M233.63 12.9362V4.75806C260.392 5.74507 287.013 5.74507 313.747 4.75806V12.9079C309.658 13.19 305.569 13.4438 301.48 13.7258C299.337 13.895 297.165 13.9514 295.05 14.3462C290.369 15.1922 288.085 18.125 287.408 23.6805C287.013 26.9235 286.844 30.1948 286.844 33.466C286.844 50.8092 286.844 68.1524 286.844 85.4674C286.844 85.975 286.844 86.4826 286.844 87.385H396.233C396.994 86.3134 396.684 85.3264 396.684 84.424C396.684 67.7858 396.628 51.1476 396.571 34.4812C396.571 30.9562 396.459 27.4029 395.839 23.9343C394.457 16.2356 392.229 14.2898 384.417 13.8104C380.469 13.5566 376.493 13.4156 372.545 13.19C371.53 13.1336 370.514 12.9644 369.414 12.8516V4.75806C396.233 5.71687 422.939 5.74507 449.785 4.75806V12.9079C445.696 13.19 441.607 13.4438 437.518 13.7258C435.46 13.8668 433.401 13.9796 431.371 14.2898C426.831 14.9666 424.462 17.3918 423.672 22.0449C422.911 26.4723 422.629 30.928 422.629 35.4118C422.629 79.9119 422.657 124.412 422.741 168.94C422.741 171.76 423.165 174.58 423.616 177.372C424.603 183.351 427.225 185.663 433.232 186.086C438.731 186.453 444.202 186.848 449.785 187.214V195.364C423.023 194.264 396.261 194.236 369.387 195.392V187.214C374.265 186.876 379.2 186.509 384.164 186.227C394.09 185.635 395.387 182.166 396.12 173.509C397.107 161.806 396.6 150.074 396.656 138.343C396.712 125.85 396.656 113.329 396.656 100.216C359.996 99.8496 323.476 99.9624 286.788 100.16C286.788 101.372 286.788 102.049 286.788 102.726C286.788 124.891 286.788 147.057 286.816 169.222C286.816 172.155 287.098 175.06 287.718 177.908C288.959 183.492 291.582 185.691 297.306 186.058C302.721 186.396 308.107 186.791 313.663 187.158V195.336C287.013 194.208 260.392 194.208 233.602 195.336V187.158C238.819 186.791 244.121 186.396 249.422 186.058C256.36 185.607 259.151 182.928 259.913 176.131C261.125 165.049 260.618 153.938 260.646 142.827C260.702 107.464 260.702 72.1004 260.646 36.7372C260.646 32.3662 260.561 27.9669 259.969 23.5959C259.067 16.856 256.275 14.318 248.435 13.7822C243.557 13.4438 238.65 13.2182 233.602 12.9079L233.63 12.9362Z" fill="white"></path>
<path d="M1092.19 189.527C1094.45 175.567 1094.33 161.806 1094.19 147.875H1102.91C1103.58 153.289 1104.49 158.788 1104.91 164.287C1105.3 169.476 1107.98 173.114 1111.79 176.188C1118.59 181.63 1126.51 184.563 1134.91 186.34C1149.04 189.329 1162.8 188.511 1175.86 181.912C1187.25 176.16 1195.29 167.446 1198 154.727C1200.17 144.603 1199.61 134.649 1193.15 125.935C1188.35 119.449 1181.44 116.008 1173.97 113.555C1165 110.65 1155.73 109.579 1146.42 108.394C1135.67 107.012 1125.07 104.926 1115.09 100.583C1101.19 94.5479 1092.53 84.5086 1091.01 68.942C1089.48 53.5728 1092.33 39.3316 1101.67 26.8107C1112.1 12.8233 1126.68 5.35025 1143.4 1.8534C1161.93 -2.01004 1180.03 0.44339 1197.72 6.64746C1202 8.14208 1206.2 9.8341 1210.6 11.4697C1207.98 24.2727 1206.74 37.0474 1206.66 50.1042H1198.03C1197.35 44.1257 1196.59 38.2036 1196 32.2534C1195.54 27.7131 1193.01 24.4983 1189.59 21.791C1182.15 15.869 1173.52 13.1335 1164.19 12.1183C1156.51 11.3005 1148.9 11.1031 1141.43 13.4719C1123.6 19.0556 1113.09 33.889 1113.68 52.5858C1114.1 66.1501 1120.59 74.9204 1133.7 79.9683C1143.43 83.719 1153.64 84.9316 1163.87 86.2006C1177.69 87.9208 1191.43 90.1204 1203.78 97.1141C1214.64 103.29 1220.76 112.596 1221.8 125.117C1224.48 156.758 1207.13 179.938 1181.44 191.303C1166.55 197.902 1150.87 200.638 1134.72 199.876C1120.47 199.228 1106.71 196.013 1093.6 190.203C1093.15 190.006 1092.7 189.752 1092.19 189.498V189.527Z" fill="white"></path>
<path d="M1491.79 49.2299V42.6874C1513.05 43.4488 1534.31 43.5052 1555.72 42.6592C1556.17 44.8306 1555.92 46.9456 1555.89 49.2017C1552.05 49.4555 1548.3 49.7657 1544.52 49.9067C1537.44 50.1887 1535.08 52.3883 1534.65 59.3256C1533.52 78.0224 1534.31 96.7192 1534.17 115.416C1534.03 135.072 1534.17 154.755 1534.26 174.411C1534.26 176.808 1534.57 179.205 1535.13 181.546C1536.06 185.578 1537.87 187.214 1542.01 187.609C1546.55 188.032 1551.09 188.314 1555.8 188.652C1556.11 190.739 1555.97 192.854 1555.86 195.11C1534.46 194.264 1513.19 194.292 1491.79 195.11V188.821C1495.91 187.806 1500.14 188.257 1504.31 187.75C1510.37 187.017 1512.43 185.071 1512.94 178.951C1513.33 174.214 1513.47 169.504 1513.45 164.738C1513.39 150.497 1513.45 136.284 1513.45 122.043C1513.45 121.197 1513.45 120.351 1513.45 119.533C1508.71 118.462 1431.24 118.405 1425.4 119.449V121.93C1425.4 138.061 1425.4 154.191 1425.4 170.322C1425.4 174.101 1425.6 177.88 1426.39 181.602C1427.21 185.466 1429.1 187.186 1433.1 187.552C1437.7 187.975 1442.33 188.286 1447.03 188.652V195.082C1425.69 194.264 1404.34 194.264 1382.96 195.082V188.765C1387.28 187.863 1391.59 188.229 1395.85 187.693C1401.52 186.988 1403.52 185.127 1404.09 179.403C1404.42 176.075 1404.62 172.719 1404.62 169.335C1404.59 135.607 1404.59 101.88 1404.62 68.1523C1404.62 64.7964 1404.4 61.4406 1404.06 58.113C1403.49 52.4447 1400.95 50.1605 1395.17 49.8785C1393.12 49.7657 1391.06 49.7375 1389 49.4837C1387.05 49.2299 1385.08 49.4273 1382.99 49.4273V42.631C1404.23 43.3924 1425.49 43.4488 1446.89 42.631C1447.43 44.8024 1446.98 46.9174 1447.18 49.2017C1443.17 49.4555 1439.34 49.7375 1435.47 49.9067C1428.96 50.1887 1426.36 52.5011 1425.91 58.9026C1424.81 75.2588 1425.63 91.6432 1425.43 108.028C1425.43 108.197 1425.55 108.338 1425.72 108.817C1454.76 109.494 1483.95 109.522 1512.99 108.817C1513.64 107.915 1513.42 107.097 1513.42 106.364C1513.42 93.0814 1513.45 79.799 1513.42 66.5167C1513.42 63.753 1513.22 60.9894 1512.88 58.2822C1512.18 52.3883 1509.7 50.2169 1503.75 49.9631C1499.8 49.7939 1495.88 49.5119 1491.82 49.2581L1491.79 49.2299Z" fill="white"></path>
<path d="M770.481 49.2297V42.7436C773.301 42.7436 776.092 42.659 778.912 42.7436C798.314 43.4769 817.744 43.3359 837.146 42.8001C846.678 42.5462 856.238 42.2642 865.685 44.5767C890.163 50.6115 894.731 72.8898 887.737 89.8382C883.056 101.203 873.919 108.14 863.006 113.103C858.24 115.275 853.248 116.713 847.89 117.982C851.669 122.917 855.279 127.683 858.945 132.449C871.268 148.467 883.676 164.428 895.831 180.587C899.158 184.986 902.966 187.919 908.549 188.314C909.311 188.37 910.072 188.624 910.946 188.793V195.166C900.738 194.461 890.586 194.32 880.49 195.195C859.622 168.997 841.122 141.163 819.605 115.501C819.69 114.654 820.198 113.893 820.874 113.019C827.191 113.216 833.508 113.019 839.853 112.088C853.248 110.171 865.036 100.244 867.828 87.6668C871.156 72.6642 865.233 56.2516 845.747 52.1625C834.692 49.8501 823.666 50.8089 812.725 53.347C812.33 53.4316 811.963 53.6854 811.427 53.911C811.427 56.9284 811.427 59.9458 811.427 62.9351C811.427 98.2983 811.427 133.662 811.427 168.997C811.427 173.029 811.596 177.062 812.33 181.066C813.148 185.466 815.093 187.073 819.605 187.665C824.033 188.257 828.545 187.891 833.085 188.793V195.11C811.737 194.292 790.475 194.292 769.07 195.11V188.793C773.498 187.919 778.01 188.201 782.409 187.665C787.288 187.073 789.487 185.014 790.08 180.22C790.474 176.977 790.644 173.706 790.644 170.435C790.644 134.649 790.616 98.8623 790.559 63.0479C790.559 60.9047 790.334 58.7332 789.939 56.6464C789.036 51.937 786.752 50.3295 780.745 49.9065C777.418 49.6809 774.062 49.4271 770.481 49.1733V49.2297Z" fill="white"></path>
<path d="M588.024 49.2301V42.6594C600.743 42.8568 613.404 43.9566 626.123 42.5748C661.204 85.8341 696.229 129.009 731.254 172.212C732.325 171.535 731.931 170.774 731.931 170.181C731.931 136.115 731.931 102.049 731.931 67.9833C731.931 64.9659 731.761 61.9485 731.451 58.9592C730.746 52.3603 728.575 50.3581 721.863 49.9351C718.338 49.7095 714.813 49.4557 711.119 49.2301C710.639 47.1433 710.978 45.0283 710.865 42.5748C728.236 43.4208 745.354 43.4772 762.612 42.5466C763.035 44.8873 762.866 46.9741 762.725 49.1455C758.354 49.5403 754.068 49.7377 749.838 50.3299C744.592 51.0631 742.957 52.8962 742.449 58.2542C742.139 61.4973 741.914 64.7967 741.914 68.0397C741.885 108.564 741.885 149.116 741.914 189.64C741.914 192.629 742.252 195.618 742.449 198.889C735.822 197.705 729.364 196.577 722.794 195.392C688.333 152.641 653.872 109.889 619.016 66.6297C619.016 71.4802 619.016 75.6538 619.016 79.8557C619.016 110.115 619.016 140.402 619.016 170.661C619.016 173.847 619.073 177.006 619.552 180.192C620.285 185.127 622.288 187.186 627.194 187.609C631.312 187.976 635.429 188.314 639.687 188.681V195.195C622.513 194.377 605.452 194.321 588.25 195.195C587.771 192.995 588.081 190.909 588.024 188.822C592.141 187.891 596.202 188.201 600.207 187.666C605.706 186.961 607.652 185.212 608.244 179.769C609.4 169.194 608.751 158.591 608.78 147.988C608.892 121.761 608.836 95.5633 608.78 69.3369C608.78 65.8119 608.836 62.2869 608.357 58.7618C607.454 52.1347 605.649 50.3863 598.909 49.9351C595.384 49.7095 591.888 49.4557 588.081 49.2301H588.024Z" fill="white"></path>
<path d="M1795.82 66.545C1795.82 70.6058 1795.82 73.8489 1795.82 77.1201C1795.82 108.958 1795.82 140.768 1795.82 172.606C1795.82 175.285 1796.04 177.936 1796.41 180.559C1797.03 185.015 1799.14 187.101 1803.6 187.553C1807.8 187.976 1812 188.286 1816.35 188.652C1816.74 190.711 1816.49 192.826 1816.54 195.167C1799.23 194.377 1782.11 194.292 1764.85 195.167V188.822C1768.49 187.835 1772.21 188.145 1775.85 187.778C1783.83 186.989 1784.56 184.902 1785.38 177.118C1785.61 175.06 1785.49 172.973 1785.49 170.914C1785.49 136.172 1785.49 101.401 1785.49 66.6578C1785.49 63.4712 1785.47 60.2845 1784.96 57.1261C1784.25 52.8396 1782.67 51.0912 1778.44 50.3862C1774.02 49.653 1769.56 49.512 1764.96 49.2582C1764.49 47.115 1764.82 45.0281 1764.71 42.6311C1777.54 42.8285 1790.2 43.9283 1802.98 42.5465C1838.03 85.7494 1873.06 128.952 1908.14 172.183C1909.1 171.309 1908.76 170.491 1908.76 169.786C1908.76 136.228 1908.79 102.698 1908.76 69.1394C1908.76 65.5298 1908.5 61.9201 1908.19 58.3105C1907.69 52.4448 1905.15 50.2734 1898.63 49.9068C1895.14 49.7094 1891.64 49.4274 1888.03 49.1736V42.5465C1905.18 43.3925 1922.29 43.4207 1939.44 42.4901V49.1736C1935.83 49.4274 1932.33 49.6812 1928.84 49.8786C1922.07 50.2734 1919.76 52.4166 1919.22 59.1001C1918.94 62.7098 1918.74 66.3194 1918.74 69.929C1918.71 109.607 1918.71 149.285 1918.74 188.934C1918.74 192.177 1919.11 195.42 1919.33 198.833C1912.68 197.648 1906.11 196.464 1899.62 195.308C1865.1 152.5 1830.7 109.776 1795.79 66.4886L1795.82 66.545Z" fill="white"></path>
<path d="M1657.21 93.448H1663.81C1663.11 109.945 1662.82 126.442 1663.89 143.024H1657.21C1656.79 138.287 1656.37 133.605 1655.91 128.896C1655.6 125.371 1654.65 124.271 1651.18 123.481C1646.02 122.297 1640.74 122.297 1635.5 122.156C1626.53 121.959 1617.53 122.156 1608.57 122.41C1607.64 122.41 1606.71 122.635 1605.75 122.748V184.253C1614.04 186.171 1622.38 186.114 1630.73 185.945C1642.27 185.719 1653.8 185.691 1665.28 183.999C1668.01 183.604 1669.85 182.307 1671 179.854C1673.68 174.214 1674.75 168.151 1675.63 162.031C1675.8 160.931 1675.77 159.803 1676.28 158.647H1683.69C1681.49 170.463 1680.28 182.335 1680.28 194.264C1642.1 196.605 1604.03 193.249 1565.93 195.082C1565.84 194.687 1565.73 194.377 1565.7 194.039C1565.7 192.318 1565.7 190.598 1565.7 188.822C1568.83 187.863 1572.05 188.032 1575.15 187.75C1583.27 186.96 1583.52 184.281 1584.37 177.88C1584.74 175.088 1584.62 172.212 1584.65 169.363C1584.65 135.551 1584.65 101.739 1584.65 67.9267C1584.65 64.4863 1584.65 61.0458 1584.06 57.6054C1583.07 52.0781 1580.93 50.2169 1575.23 49.9067C1571.2 49.6811 1567.17 49.4555 1563.08 49.2299V42.3772C1602.11 44.6614 1641.11 41.4748 1680.25 43.2232C1677.66 54.1931 1676.87 65.2195 1676.64 76.4714H1669.08C1669.08 73.6796 1669.08 70.8877 1669.08 68.0959C1669.08 65.3323 1669 62.5686 1668.94 59.8332C1668.91 57.8874 1667.98 56.7594 1666.07 56.1108C1660.17 54.0803 1654.05 53.2061 1647.91 52.6139C1637.67 51.6269 1627.38 51.9935 1617.11 52.0217C1613.25 52.0217 1609.47 52.5857 1605.72 53.6855V112.004C1606.59 112.173 1607.47 112.483 1608.37 112.483C1617.42 112.483 1626.47 113.414 1635.53 112.934C1640.83 112.652 1646.19 112.793 1651.43 111.553C1654.48 110.819 1655.63 109.663 1655.94 106.477C1656.37 102.218 1656.76 97.9319 1657.21 93.448Z" fill="white"></path>
<path d="M574.657 194.321C536.332 196.633 498.29 193.305 460.304 195.11C459.74 194.039 460.051 192.995 459.994 191.98C459.938 190.965 459.994 189.921 459.994 188.681C463.632 188.314 467.185 187.947 470.767 187.609C476.012 187.101 478.014 185.043 478.663 179.854C479.114 176.329 479.17 172.832 479.17 169.307C479.17 133.944 479.17 98.5806 479.114 63.2174C479.114 61.1587 478.917 59.1001 478.55 57.0697C477.676 52.1064 475.222 50.217 469.751 49.935C465.719 49.7376 461.714 49.4838 457.569 49.23V42.4055C496.513 44.7179 535.486 41.4749 574.713 43.2515C572.316 54.2779 571.216 65.2478 571.357 76.4997H563.63C563.63 71.5083 563.63 66.6296 563.63 61.7227C563.63 57.5491 563.038 56.8159 558.921 55.5751C550.292 53.0088 541.38 52.2756 532.441 52.05C525.532 51.8808 518.623 51.9936 511.714 52.0218C507.822 52.0218 504.043 52.7268 500.123 53.6292V112.032C501.138 112.201 502.21 112.512 503.282 112.512C511.996 112.512 520.681 113.414 529.395 112.963C534.612 112.681 539.914 112.822 545.074 111.694C549.558 110.707 550.348 109.72 550.686 105.123C550.968 101.288 551.391 97.4807 551.758 93.5609H558.413C557.511 110.086 557.398 126.471 558.413 142.996H551.843C551.335 138.061 550.743 133.126 550.376 128.191C550.15 125.173 548.317 124.045 545.751 123.481C540.76 122.382 535.655 122.325 530.579 122.184C521.527 121.959 512.447 122.184 503.394 122.438C502.379 122.466 501.364 122.664 500.151 122.805V184.197C505.876 185.72 511.685 186.03 517.523 186.058C529.423 186.114 541.324 185.776 553.196 184.958C555.17 184.817 557.088 184.253 559.062 184.169C562.982 183.971 564.984 181.687 566.309 178.303C568.735 172.099 569.693 165.585 570.624 158.845H578.238C575.897 170.52 574.995 182.364 574.713 194.377L574.657 194.321Z" fill="white"></path>
<path d="M1370.7 47.9609C1368.5 58.959 1366.55 69.7597 1366.66 80.927C1364.41 81.4064 1362.26 81.1244 1359.84 81.1244C1359.84 76.8662 1359.59 72.6643 1359.9 68.4907C1360.35 62.9352 1357.58 59.6076 1353.04 57.1824C1342.81 51.7115 1331.95 48.8351 1320.3 48.2711C1308.4 47.6789 1296.98 49.3991 1286.29 54.7007C1272.45 61.5534 1263.17 72.6925 1258.01 87.0747C1251.35 105.659 1251.13 124.581 1257.7 143.137C1265.76 165.951 1282.43 179.628 1305.81 184.958C1326.17 189.611 1345.77 186.847 1364.38 177.372C1366.27 176.413 1368.07 175.229 1370.1 174.045C1370.7 174.665 1371.34 175.314 1372.05 176.075C1370.13 179.487 1368.21 182.843 1366.38 186.227C1365.48 187.891 1363.73 188.427 1362.24 189.104C1345.46 196.577 1327.92 199.876 1309.53 198.663C1295.6 197.733 1282.2 194.8 1269.74 188.342C1250.39 178.359 1237.76 162.934 1232.51 141.783C1227.44 121.31 1228.45 101.231 1238.27 82.1679C1246.76 65.6989 1260.38 54.7571 1277.1 47.4532C1291.57 41.1082 1306.82 38.7111 1322.61 39.0495C1338.12 39.388 1353.13 42.4054 1367.9 46.9175C1368.81 47.1995 1369.65 47.5943 1370.7 47.9891V47.9609Z" fill="white"></path>
<path d="M1004.37 188.681V195.11C983.054 194.349 961.792 194.264 940.359 195.11V188.85C944.251 187.806 948.312 188.286 952.288 187.778C959.225 186.876 961.115 185.24 961.453 178.19C962.186 163.47 962.215 148.749 961.594 134.028C961.51 132.195 961.03 130.447 960.128 128.896C949.242 110.143 939.062 90.9665 927.359 72.6927C922.509 65.135 916.671 58.3669 908.662 53.7702C905.419 51.909 901.838 52.332 898.312 51.486V45.3665C902.035 44.0975 906.068 43.6745 909.959 42.7439C913.964 41.7851 917.996 41.0237 922.029 40.1777C925.131 39.5291 927.81 40.1777 930.01 42.5465C935.65 48.6096 940.557 55.2084 944.533 62.4841C954.544 80.8425 964.64 99.1446 974.707 117.475C975.045 118.067 975.412 118.631 975.948 119.505C984.07 106.674 992.107 93.9839 1000.12 81.2937C1008.12 68.6036 1015.37 55.4904 1022.2 42.2363H1039.74V45.5639C1029.27 57.8029 1019.4 70.6904 1010.07 84.001C1002.17 95.2247 994.617 106.674 988.046 118.772C984.493 125.343 982.575 132.195 982.716 139.697C982.914 151.513 982.829 163.328 982.829 175.144C982.829 177.4 983.139 179.6 983.675 181.772C984.634 185.691 986.608 187.271 990.753 187.609C995.209 187.976 999.664 188.286 1004.37 188.652V188.681Z" fill="white"></path>
<path d="M1758.87 188.822V195.138C1737.44 194.292 1716.09 194.321 1694.63 195.138V188.85C1699.15 187.919 1703.63 188.258 1708.08 187.722C1712.82 187.13 1714.77 185.353 1715.59 180.728C1716.09 177.739 1716.21 174.721 1716.21 171.704C1716.21 136.087 1716.21 100.47 1716.18 64.8529C1716.18 62.5405 1716.09 60.2281 1715.73 57.9157C1714.8 52.2474 1712.65 50.3016 1706.82 49.9914C1702.87 49.794 1698.92 49.5402 1694.83 49.3146C1694.29 47.1996 1694.72 45.0845 1694.58 42.7439C1716.15 43.5053 1737.5 43.5617 1758.96 42.7439V49.2864C1755.35 49.512 1751.85 49.8504 1748.35 49.9632C1738.32 50.2734 1738.32 53.6574 1737.44 60.9049C1737.19 63.0481 1737.3 65.2196 1737.3 67.3628C1737.3 102.303 1737.3 137.215 1737.3 172.155C1737.3 175.003 1737.39 177.823 1737.84 180.644C1738.54 185.212 1740.6 187.158 1745.2 187.778C1749.71 188.37 1754.31 188.004 1758.93 188.934L1758.87 188.822Z" fill="white"></path>
<path d="M1990.54 34.3121C1968.63 34.2557 1950.66 52.1912 1950.89 74.2438C1951.12 96.9451 1969.76 113.809 1990.6 113.611C2012.65 113.611 2030.58 95.7889 2030.56 73.9336C2030.53 51.9373 2012.79 34.3685 1990.57 34.3121H1990.54ZM1990.43 108.846C1971.53 108.93 1955.68 92.8842 1955.71 73.9336C1955.74 54.7574 1971.5 39.0216 1990.68 39.0498C2009.52 39.1908 2025.73 54.0524 2025.68 73.9054C2025.59 94.6045 2008.84 108.761 1990.43 108.817V108.846Z" fill="white"></path>
<path d="M2010.56 92.7431C2007.57 92.4611 2006.22 90.2897 2005.15 87.8644C2004.27 85.9186 2003.51 83.9164 2002.58 81.9988C2000.89 78.4173 1999.03 74.9769 1995.02 73.4823C1995.39 72.8055 1995.95 72.8619 1996.46 72.7773C2003.12 71.339 2006.5 67.1372 2006.27 60.6511C2006.08 55.5469 2002.61 52.4448 1996.04 51.4014C1990.88 50.6118 1985.72 51.1758 1980.53 51.0066C1977.79 50.922 1975.09 51.0066 1972.43 51.0066C1972.1 52.473 1972.66 52.8396 1973.7 53.037C1977.51 53.6856 1977.74 53.9394 1977.74 57.7747C1977.74 67.8704 1977.74 77.9379 1977.74 88.0336C1977.74 89.4154 1977.74 90.7973 1977.03 91.9253C1975.71 93.1943 1974.01 92.6303 1972.72 92.9123C1972.27 93.4763 1972.43 93.8711 1972.58 94.3505H1989.02C1989.02 93.9557 1989.16 93.5891 1989.04 93.4481C1987.75 92.0099 1985.49 93.2225 1983.91 91.2485C1983.09 85.975 1983.74 80.2786 1983.52 74.6103C1990.99 73.6515 1992.77 74.6385 1995.62 81.1528C1996.94 84.1984 1998.21 87.3004 1999.59 90.3461C2000.66 92.6867 2002.47 94.2377 2005.09 94.4351C2007.21 94.6043 2009.35 94.4633 2011.44 94.4633C2011.6 93.5045 2011.69 92.8841 2010.62 92.7713L2010.56 92.7431ZM1983.49 72.1851C1983.49 66.6578 1983.43 61.4407 1983.52 56.2237C1983.55 54.165 1984.59 52.8396 1986.96 53.0088C1988.85 53.1216 1990.79 52.896 1992.63 53.2062C1997.56 54.0804 2000.07 57.1825 2000.1 62.1457C2000.13 67.4192 1997.62 70.5776 1992.6 71.6775C1989.69 72.3261 1986.79 72.185 1983.49 72.2132V72.1851Z" fill="white"></path>
</svg></defs><use href="#svg-328096993_19514"></use></svg>