<svg style="width:100%;height:100%;" viewBox="0 0 742 200" preserveAspectRatio="none" width="100%" height="100%" xmlns="http://www.w3.org/2000/svg"><defs><svg width="742" height="200" viewBox="0 0 742 200" fill="none" id="svg1717428135_23971">
<path d="M671.298 46.0589C649.782 31.3033 628.292 16.4941 606.735 1.79214C601.826 -1.5614 598.432 -0.179738 597.077 5.69567C596.125 9.81382 595.615 14.0393 594.904 18.2111C591.98 35.2873 589.056 52.377 586.212 68.9972C585.89 74.6714 588.305 76.6164 593.898 75.2213C619.05 68.9301 644.175 62.5181 669.299 56.1598C671.821 55.5159 674.196 54.6708 674.652 51.6392C675.067 48.9027 673.27 47.4272 671.285 46.0723L671.298 46.0589ZM595.226 54.3623C598.151 42.2761 601.008 30.1765 604.066 18.1306C604.616 15.9307 605.823 13.3954 608.748 13.9722C611.39 14.4954 612.182 16.9233 612.088 19.3781C612.007 21.2561 611.887 23.3219 611.095 24.9718C606.293 34.9654 601.303 44.8651 596.38 54.805C595.991 54.6574 595.615 54.5233 595.226 54.3757V54.3623ZM649.688 48.0845C633.497 54.4026 617.292 60.6804 601.061 66.8911C599.706 67.4143 597.869 68.0984 596.849 66.4351C596.071 65.1741 597.037 63.8461 597.788 62.7193C604.925 51.9746 612.007 41.1896 619.264 30.5119C622.229 26.1657 626.012 25.1596 630.653 28.4864C636.931 32.9801 643.383 37.2324 649.715 41.6457C650.935 42.4908 652.491 43.1346 652.719 45.0126C652.599 46.8369 651.069 47.5345 649.688 48.071V48.0845Z" fill="#C9223F"></path>
<path d="M96.2327 102.358C91.0951 100.172 87.2856 97.0059 84.7906 92.8878C84.5759 92.4988 84.4686 92.1366 84.4686 91.8147C84.4686 90.8354 85.0051 90.0842 86.0783 89.5611L92.5037 86.61C92.933 86.4088 93.322 86.3149 93.6842 86.3149C94.5427 86.3149 95.3609 86.7709 96.1389 87.6831C97.8559 89.9769 100.405 91.761 103.785 93.0353C107.179 94.3097 110.975 94.9536 115.187 94.9536C120.258 94.9536 124.215 93.8939 127.059 91.761C129.916 89.6416 131.338 86.7038 131.338 82.9747C131.338 79.6346 130.05 77.0054 127.488 75.0738C124.926 73.1421 121.17 72.1763 116.247 72.1763H112.397C111.605 72.1763 110.935 71.9214 110.358 71.3849C109.781 70.8617 109.499 70.2446 109.499 69.5203V66.3814C109.499 65.657 109.781 65.04 110.358 64.5168C110.935 63.9937 111.605 63.7254 112.397 63.7254C116.032 63.7254 119.01 62.7864 121.331 60.9218C123.651 59.0573 124.805 56.7902 124.805 54.094C124.805 51.1429 123.665 48.7954 121.384 47.0247C119.104 45.2541 116.18 44.3687 112.612 44.3687C109.902 44.3687 107.38 44.9053 105.073 45.9918C102.752 47.0784 100.914 48.5942 99.5596 50.5527C98.9828 51.3978 98.2449 51.827 97.3059 51.827C97.0242 51.827 96.662 51.7599 96.2327 51.6258L89.8074 49.56C88.5197 49.171 87.8757 48.3796 87.8757 47.1991C87.8757 46.8101 87.983 46.4077 88.1976 46.0187C90.1964 42.2895 93.3755 39.3384 97.7217 37.1787C102.068 35.019 107.179 33.9325 113.027 33.9325C117.95 33.9325 122.296 34.7508 126.079 36.3873C129.862 38.0238 132.786 40.3042 134.852 43.2151C136.918 46.126 137.951 49.4125 137.951 53.0745C137.951 55.8915 137.186 58.5073 135.644 60.9218C134.114 63.3498 131.874 65.2143 128.95 66.5155C133.658 67.1728 137.414 69.0508 140.245 72.1629C143.062 75.275 144.47 78.9907 144.47 83.3101C144.47 90.5135 141.653 96.0267 136.019 99.8498C130.385 103.673 123.034 105.591 113.98 105.591C107.273 105.591 101.357 104.491 96.2193 102.305L96.2327 102.358Z" fill="white"></path>
<path d="M173.753 103.606C168.803 102.425 164.484 100.655 160.808 98.2803C159.842 97.5828 159.359 96.6975 159.359 95.6512C159.359 94.8597 159.628 94.0683 160.151 93.2903L163.826 88.6892C164.443 87.8173 165.275 87.3746 166.321 87.3746C167.113 87.3746 167.851 87.6429 168.562 88.1661C171.459 90.0977 174.732 91.533 178.421 92.4988C182.096 93.4646 185.692 93.9476 189.193 93.9476C193.391 93.9476 196.839 93.25 199.508 91.8415C202.177 90.4465 203.519 88.3807 203.519 85.671C203.519 83.3101 202.177 81.4724 199.508 80.1578C196.839 78.8432 192.653 77.4481 186.966 75.9592C181.359 74.4702 176.825 73.0214 173.364 71.6264C169.903 70.2313 166.925 68.2326 164.43 65.6437C161.935 63.0547 160.687 59.7146 160.687 55.5964C160.687 49.7344 163.223 45.0395 168.307 41.5384C173.391 38.0373 180.178 36.28 188.669 36.28C199.186 36.28 207.718 38.6946 214.29 43.5103C215.162 44.1273 215.605 44.9992 215.605 46.1394C215.605 47.0114 215.337 47.8028 214.814 48.5003L211.272 52.8331C210.481 53.705 209.609 54.1477 208.643 54.1477C207.852 54.1477 207.06 53.8794 206.282 53.3563C201.373 49.5869 195.645 47.7089 189.072 47.7089C185.477 47.7089 182.485 48.5138 180.071 50.1369C177.656 51.76 176.463 53.7989 176.463 56.2403C176.463 58.6817 177.858 60.6402 180.661 62.0889C183.465 63.5376 187.838 65.0937 193.794 66.757C199.226 68.3399 203.653 69.802 207.06 71.1569C210.481 72.5117 213.392 74.4433 215.793 76.9384C218.207 79.4334 219.401 82.5723 219.401 86.3283C219.401 92.9817 216.665 97.8243 211.192 100.842C205.719 103.861 198.422 105.376 189.313 105.376C183.881 105.376 178.689 104.786 173.739 103.606H173.753Z" fill="white"></path>
<path d="M240.046 103.673C239.08 103.673 238.249 103.324 237.551 102.627C236.854 101.929 236.505 101.097 236.505 100.131V15.2465C236.505 14.2807 236.854 13.449 237.551 12.7515C238.249 12.054 239.08 11.7052 240.046 11.7052H248.725C249.691 11.7052 250.523 12.054 251.22 12.7515C251.918 13.449 252.266 14.2807 252.266 15.2465V50.7271C255.861 45.9114 260.154 42.3029 265.144 39.8884C270.134 37.4738 275.352 36.28 280.785 36.28C289.102 36.28 294.99 38.4531 298.451 42.7858C301.912 47.1186 303.643 53.544 303.643 62.0352V100.145C303.643 101.111 303.294 101.942 302.596 102.64C301.899 103.337 301.067 103.686 300.101 103.686H291.302C290.336 103.686 289.504 103.337 288.807 102.64C288.109 101.942 287.76 101.111 287.76 100.145V67.5618C287.76 61.4315 286.647 56.8976 284.407 53.9599C282.167 51.0221 278.303 49.56 272.777 49.56C268.484 49.56 264.473 50.7673 260.758 53.1684C257.028 55.583 254.211 58.8024 252.28 62.8266V100.145C252.28 101.111 251.931 101.942 251.233 102.64C250.536 103.337 249.704 103.686 248.738 103.686H240.06L240.046 103.673Z" fill="white"></path>
<path d="M326.903 100.064C322.704 96.4292 320.678 91.3318 320.853 84.7588C320.853 78.6286 323.442 73.6519 328.606 69.8423C333.771 66.0326 341.135 64.1278 350.686 64.1278C357.514 64.1278 364.087 65.1339 370.391 67.146V65.5631C370.391 59.5134 369.037 55.0062 366.313 52.0282C363.59 49.0503 359.177 47.5613 353.047 47.5613C346.917 47.5613 340.558 49.3588 334.254 52.9538C333.811 53.3026 333.247 53.477 332.55 53.477C331.41 53.477 330.484 52.9941 329.786 52.0282L327.291 48.7418C326.768 48.0442 326.5 47.293 326.5 46.5016C326.5 45.187 327.117 44.1809 328.338 43.4834C332.711 41.0286 337.312 39.1909 342.141 37.9702C346.957 36.7495 351.772 36.1324 356.588 36.1324C366.313 36.1324 373.664 38.3726 378.668 42.8395C383.658 47.3065 386.153 53.8794 386.153 62.545V100.118C386.153 101.084 385.804 101.916 385.107 102.613C384.409 103.311 383.577 103.659 382.612 103.659H375.904C374.939 103.659 374.107 103.311 373.409 102.613C372.712 101.916 372.363 101.084 372.363 100.118V96.4426C369.385 98.8974 365.415 101.017 360.478 102.814C355.528 104.612 350.511 105.511 345.427 105.511C337.285 105.511 331.101 103.686 326.903 100.064ZM361.846 93.0354C365.79 91.4525 368.674 89.7489 370.526 87.9112V75.825C365.884 73.9872 361.015 73.0617 355.944 73.0617C343.147 73.0617 336.762 76.7908 336.762 84.2357C336.588 88.0855 337.687 90.9159 340.048 92.7134C342.409 94.5109 345.79 95.4097 350.163 95.4097C354.013 95.4097 357.916 94.6182 361.86 93.0488L361.846 93.0354Z" fill="white"></path>
<path d="M409.802 136.524C408.836 136.524 408.005 136.175 407.307 135.478C406.61 134.78 406.261 133.949 406.261 132.983V41.5249C406.261 40.559 406.61 39.7274 407.307 39.0298C408.005 38.3323 408.836 37.9835 409.802 37.9835H415.45C416.416 37.9835 417.247 38.3323 417.945 39.0298C418.642 39.7274 418.991 40.559 418.991 41.5249V48.6209C421.701 44.6772 425.188 41.659 429.441 39.553C433.693 37.4469 438.576 36.4006 444.089 36.4006C450.139 36.4006 455.545 37.8628 460.32 40.8005C465.096 43.7382 468.811 47.8161 471.494 53.0208C474.164 58.2389 475.505 64.168 475.505 70.8214C475.505 77.4748 474.164 83.31 471.494 88.5549C468.825 93.8133 465.096 97.9046 460.32 100.842C455.545 103.78 450.139 105.242 444.089 105.242C439.354 105.242 435.128 104.437 431.412 102.814C427.683 101.191 424.558 98.8973 422.023 95.9193V132.969C422.023 133.935 421.674 134.767 420.976 135.464C420.279 136.162 419.447 136.511 418.481 136.511H409.802V136.524ZM454.284 86.5294C457.825 82.6259 459.609 77.3943 459.609 70.8214C459.609 64.2484 457.838 59.0169 454.284 55.1134C450.742 51.2099 445.98 49.2648 440.025 49.2648C435.826 49.2648 432.191 50.1904 429.119 52.0281C426.047 53.8659 423.686 56.4951 422.023 59.9157V81.593C423.686 85.0136 426.047 87.6562 429.119 89.5476C432.191 91.439 435.826 92.378 440.025 92.378C445.98 92.378 450.729 90.4329 454.284 86.5294Z" fill="white"></path>
<path d="M507.833 101.044C502.32 98.0657 498.041 93.9341 495.023 88.6221C492.004 83.3235 490.489 77.381 490.489 70.8215C490.489 64.262 491.978 58.2122 494.956 52.9538C497.933 47.6955 502.186 43.5773 507.699 40.5994C513.212 37.6214 519.705 36.1324 527.15 36.1324C537.304 36.1324 545.299 38.7884 551.134 44.087C556.956 49.3856 560.35 56.5488 561.315 65.5766V68.5948C561.315 69.5606 560.967 70.3922 560.269 71.0898C559.572 71.7873 558.74 72.1361 557.774 72.1361H506.921C507.793 79.4066 510.207 84.9064 514.151 88.6221C518.095 92.3513 523.219 94.2024 529.524 94.2024C535.829 94.2024 541.704 92.4988 546.868 89.0782C547.566 88.555 548.317 88.2868 549.108 88.2868C550.155 88.2868 550.987 88.7294 551.604 89.6013L554.367 93.022C554.984 93.7195 555.292 94.5512 555.292 95.517C555.292 96.3084 555.024 96.9255 554.501 97.3547C551.255 99.89 547.23 101.889 542.415 103.337C537.599 104.786 532.515 105.511 527.176 105.511C519.825 105.511 513.373 104.022 507.86 101.044H507.833ZM545.151 60.5731C543.837 56.2805 541.663 52.8868 538.645 50.3917C535.627 47.8967 531.791 46.6492 527.15 46.6492C522.508 46.6492 518.35 47.8967 514.929 50.3917C511.508 52.8868 509.054 56.2805 507.578 60.5731H545.151Z" fill="white"></path>
<path d="M8.04765 197.988C5.76724 196.673 4.01007 194.903 2.77597 192.662C1.54186 190.422 0.924805 187.914 0.924805 185.151C0.924805 182.387 1.5553 179.999 2.80282 177.773C4.05034 175.546 5.82095 173.789 8.10136 172.501C10.3818 171.213 13.0244 170.569 16.0158 170.569C20.0132 170.569 23.4204 171.79 26.2239 174.218C26.4117 174.406 26.5056 174.594 26.5056 174.781C26.5056 174.929 26.4252 175.117 26.2776 175.345L25.7142 176.069C25.5264 176.337 25.2849 176.458 24.9898 176.458C24.8422 176.458 24.641 176.364 24.3728 176.176C22.1594 174.151 19.4095 173.145 16.123 173.145C13.7621 173.145 11.6829 173.681 9.87195 174.768C8.06104 175.855 6.65267 177.317 5.63319 179.168C4.61372 181.019 4.11739 183.044 4.11739 185.258C4.11739 187.471 4.62713 189.497 5.63319 191.348C6.63926 193.199 8.04763 194.661 9.87195 195.748C11.6829 196.834 13.7755 197.371 16.123 197.371C17.84 197.371 19.3827 197.116 20.7241 196.62C22.0656 196.11 23.3264 195.359 24.48 194.353C24.6678 194.165 24.8691 194.071 25.0972 194.071C25.352 194.071 25.5801 194.178 25.7679 194.406L26.3312 195.131C26.4385 195.318 26.5056 195.506 26.5324 195.694C26.5458 195.882 26.5056 196.029 26.3983 196.137C23.5947 198.685 20.1339 199.946 16.0158 199.946C12.9841 199.946 10.3281 199.289 8.04765 197.988Z" fill="white"></path>
<path d="M76.9161 198.015C74.6491 196.727 72.9187 194.97 71.7249 192.743C70.531 190.516 69.9272 188.021 69.9272 185.258C69.9272 182.495 70.531 179.999 71.7249 177.773C72.9187 175.546 74.6491 173.789 76.9161 172.501C79.1831 171.213 81.866 170.569 84.9646 170.569C88.0633 170.569 90.7462 171.213 93.0132 172.501C95.2801 173.789 97.0106 175.546 98.2044 177.773C99.3983 179.999 100.002 182.495 100.002 185.258C100.002 188.021 99.3983 190.516 98.2044 192.743C97.0106 194.97 95.2801 196.727 93.0132 198.015C90.7462 199.302 88.0633 199.946 84.9646 199.946C81.866 199.946 79.1831 199.302 76.9161 198.015ZM91.3095 195.694C93.107 194.648 94.4752 193.212 95.4008 191.375C96.3397 189.537 96.8093 187.498 96.8093 185.258C96.8093 183.018 96.3397 180.979 95.4008 179.141C94.4618 177.303 93.107 175.868 91.3095 174.822C89.512 173.775 87.406 173.252 84.9646 173.252C82.5233 173.252 80.4171 173.775 78.6196 174.822C76.8221 175.868 75.454 177.303 74.5284 179.141C73.5894 180.979 73.1198 183.018 73.1198 185.258C73.1198 187.498 73.5894 189.537 74.5284 191.375C75.4674 193.212 76.8221 194.648 78.6196 195.694C80.4171 196.74 82.5233 197.264 84.9646 197.264C87.406 197.264 89.512 196.74 91.3095 195.694Z" fill="white"></path>
<path d="M145.664 199.276C145.436 199.276 145.248 199.195 145.074 199.021C144.899 198.846 144.819 198.659 144.819 198.431V172.058C144.819 171.83 144.899 171.642 145.074 171.468C145.248 171.294 145.436 171.213 145.664 171.213H146.844C147.072 171.213 147.26 171.294 147.434 171.468C147.609 171.642 147.689 171.83 147.689 172.058V177.451C149.031 175.251 150.694 173.547 152.679 172.34C154.665 171.146 156.744 170.542 158.904 170.542C161.184 170.542 163.008 171.079 164.377 172.166C165.745 173.252 166.67 174.956 167.153 177.276C168.495 175.144 170.145 173.494 172.09 172.313C174.035 171.133 176.074 170.542 178.206 170.542C181.05 170.542 183.183 171.401 184.605 173.118C186.027 174.835 186.738 177.585 186.738 181.368V198.417C186.738 198.645 186.657 198.833 186.483 199.007C186.309 199.182 186.121 199.262 185.893 199.262H184.377C184.149 199.262 183.961 199.182 183.787 199.007C183.612 198.833 183.532 198.645 183.532 198.417V182.253C183.532 179.074 182.982 176.78 181.882 175.358C180.782 173.936 179.159 173.225 177.026 173.225C175.041 173.225 173.176 173.829 171.446 175.023C169.702 176.217 168.334 177.853 167.328 179.906C167.435 180.697 167.502 181.556 167.502 182.481V198.417C167.502 198.645 167.422 198.833 167.247 199.007C167.073 199.182 166.885 199.262 166.657 199.262H165.088C164.859 199.262 164.672 199.182 164.497 199.007C164.323 198.833 164.242 198.645 164.242 198.417V182.253C164.242 179.074 163.692 176.78 162.593 175.358C161.493 173.936 159.869 173.225 157.737 173.225C155.751 173.225 153.887 173.829 152.129 175.023C150.372 176.217 148.991 177.853 147.971 179.906V198.417C147.971 198.645 147.89 198.833 147.716 199.007C147.542 199.182 147.354 199.262 147.126 199.262H145.664V199.276Z" fill="white"></path>
<path d="M233.191 199.276C232.963 199.276 232.775 199.195 232.601 199.021C232.427 198.846 232.346 198.659 232.346 198.431V172.058C232.346 171.83 232.427 171.642 232.601 171.468C232.775 171.294 232.963 171.213 233.191 171.213H234.372C234.6 171.213 234.788 171.294 234.962 171.468C235.136 171.642 235.217 171.83 235.217 172.058V177.451C236.558 175.251 238.222 173.547 240.207 172.34C242.192 171.146 244.271 170.542 246.431 170.542C248.711 170.542 250.536 171.079 251.904 172.166C253.272 173.252 254.198 174.956 254.681 177.276C256.022 175.144 257.672 173.494 259.617 172.313C261.562 171.133 263.601 170.542 265.734 170.542C268.578 170.542 270.711 171.401 272.133 173.118C273.554 174.835 274.265 177.585 274.265 181.368V198.417C274.265 198.645 274.185 198.833 274.011 199.007C273.836 199.182 273.648 199.262 273.42 199.262H271.905C271.677 199.262 271.489 199.182 271.314 199.007C271.14 198.833 271.059 198.645 271.059 198.417V182.253C271.059 179.074 270.51 176.78 269.41 175.358C268.31 173.936 266.686 173.225 264.554 173.225C262.568 173.225 260.704 173.829 258.973 175.023C257.229 176.217 255.861 177.853 254.855 179.906C254.962 180.697 255.029 181.556 255.029 182.481V198.417C255.029 198.645 254.949 198.833 254.775 199.007C254.6 199.182 254.412 199.262 254.184 199.262H252.615C252.387 199.262 252.199 199.182 252.025 199.007C251.85 198.833 251.77 198.645 251.77 198.417V182.253C251.77 179.074 251.22 176.78 250.12 175.358C249.02 173.936 247.397 173.225 245.264 173.225C243.279 173.225 241.414 173.829 239.657 175.023C237.9 176.217 236.518 177.853 235.498 179.906V198.417C235.498 198.645 235.418 198.833 235.244 199.007C235.069 199.182 234.881 199.262 234.653 199.262H233.191V199.276Z" fill="white"></path>
<path d="M322.422 197.035C320.866 195.09 320.088 192.153 320.088 188.222V172.058C320.088 171.83 320.168 171.642 320.343 171.468C320.517 171.294 320.705 171.213 320.933 171.213H322.449C322.677 171.213 322.865 171.294 323.039 171.468C323.213 171.642 323.294 171.83 323.294 172.058V187.149C323.294 190.556 323.924 193.092 325.172 194.755C326.419 196.418 328.606 197.25 331.705 197.25C334.173 197.25 336.494 196.646 338.667 195.426C340.84 194.205 342.449 192.595 343.496 190.57V172.058C343.496 171.83 343.576 171.642 343.751 171.468C343.925 171.294 344.113 171.213 344.341 171.213H345.803C346.031 171.213 346.219 171.294 346.393 171.468C346.567 171.642 346.648 171.83 346.648 172.058V198.43C346.648 198.659 346.567 198.846 346.393 199.021C346.219 199.195 346.031 199.276 345.803 199.276H344.676C344.448 199.276 344.26 199.195 344.086 199.021C343.911 198.846 343.831 198.659 343.831 198.43V193.105C342.329 195.345 340.357 197.076 337.915 198.27C335.461 199.463 332.912 200.027 330.256 199.946C326.594 199.946 323.978 198.98 322.435 197.035H322.422Z" fill="white"></path>
<path d="M394.094 199.276C393.866 199.276 393.678 199.195 393.504 199.021C393.329 198.846 393.249 198.659 393.249 198.431V172.058C393.249 171.83 393.329 171.642 393.504 171.468C393.678 171.294 393.866 171.213 394.094 171.213H395.274C395.502 171.213 395.69 171.294 395.864 171.468C396.039 171.642 396.119 171.83 396.119 172.058V177.451C397.582 175.278 399.5 173.587 401.874 172.367C404.248 171.146 406.73 170.542 409.306 170.542C413.115 170.542 415.825 171.508 417.435 173.427C419.044 175.358 419.849 178.296 419.849 182.266V198.431C419.849 198.659 419.769 198.846 419.594 199.021C419.42 199.195 419.232 199.276 419.004 199.276H417.435C417.207 199.276 417.019 199.195 416.844 199.021C416.67 198.846 416.589 198.659 416.589 198.431V183.34C416.589 179.892 415.959 177.357 414.711 175.707C413.451 174.057 411.277 173.239 408.179 173.239C405.711 173.239 403.403 173.842 401.244 175.063C399.097 176.284 397.474 177.893 396.388 179.919V198.431C396.388 198.659 396.307 198.846 396.133 199.021C395.958 199.195 395.771 199.276 395.543 199.276H394.08H394.094Z" fill="white"></path>
<path d="M465.766 166.344C465.296 165.861 465.068 165.244 465.068 164.493C465.068 163.822 465.31 163.245 465.793 162.776C466.276 162.306 466.879 162.078 467.59 162.078C468.301 162.078 468.891 162.306 469.361 162.776C469.83 163.245 470.058 163.808 470.058 164.493C470.058 165.244 469.83 165.861 469.361 166.344C468.891 166.827 468.301 167.068 467.59 167.068C466.839 167.068 466.235 166.827 465.766 166.344ZM466.799 199.276C466.571 199.276 466.383 199.195 466.208 199.021C466.034 198.846 465.954 198.658 465.954 198.43V172.058C465.954 171.83 466.034 171.642 466.208 171.468C466.383 171.294 466.571 171.213 466.799 171.213H468.261C468.489 171.213 468.677 171.294 468.851 171.468C469.026 171.642 469.106 171.83 469.106 172.058V198.43C469.106 198.658 469.026 198.846 468.851 199.021C468.677 199.195 468.489 199.276 468.261 199.276H466.799Z" fill="white"></path>
<path d="M521.784 197.988C519.503 196.673 517.746 194.903 516.512 192.662C515.278 190.422 514.661 187.914 514.661 185.151C514.661 182.387 515.291 179.999 516.539 177.773C517.786 175.546 519.557 173.789 521.838 172.501C524.118 171.213 526.76 170.569 529.752 170.569C533.749 170.569 537.157 171.79 539.96 174.218C540.148 174.406 540.242 174.594 540.242 174.781C540.242 174.929 540.161 175.117 540.014 175.345L539.45 176.069C539.262 176.337 539.021 176.458 538.726 176.458C538.578 176.458 538.377 176.364 538.109 176.176C535.896 174.151 533.146 173.145 529.859 173.145C527.498 173.145 525.419 173.681 523.608 174.768C521.797 175.855 520.389 177.317 519.369 179.168C518.35 181.019 517.853 183.044 517.853 185.258C517.853 187.471 518.363 189.497 519.369 191.348C520.375 193.199 521.784 194.661 523.608 195.748C525.419 196.834 527.512 197.371 529.859 197.371C531.576 197.371 533.119 197.116 534.46 196.62C535.802 196.11 537.063 195.359 538.216 194.353C538.404 194.165 538.605 194.071 538.833 194.071C539.088 194.071 539.316 194.178 539.504 194.406L540.067 195.131C540.175 195.318 540.242 195.506 540.269 195.694C540.282 195.882 540.242 196.029 540.134 196.137C537.331 198.685 533.87 199.946 529.752 199.946C526.72 199.946 524.064 199.289 521.784 197.988Z" fill="white"></path>
<path d="M586.561 197.827C584.857 196.365 584.012 194.272 584.012 191.549C584.012 188.826 585.192 186.613 587.553 185.043C589.914 183.474 593.281 182.682 597.654 182.682C600.498 182.682 603.503 183.058 606.682 183.809V183.018C606.682 179.57 605.998 177.035 604.629 175.385C603.261 173.735 600.954 172.917 597.694 172.917C596.017 172.917 594.341 173.185 592.677 173.735C591.014 174.285 589.525 175.036 588.224 176.002C587.996 176.15 587.808 176.23 587.66 176.23C587.392 176.23 587.177 176.096 586.99 175.841L586.601 175.331C586.493 175.144 586.426 174.983 586.426 174.822C586.426 174.526 586.561 174.298 586.815 174.151C588.465 172.997 590.276 172.099 592.262 171.481C594.247 170.864 596.246 170.556 598.271 170.556C602.309 170.556 605.246 171.535 607.084 173.467C608.922 175.412 609.834 178.39 609.834 182.387V198.431C609.834 198.659 609.754 198.846 609.579 199.021C609.405 199.195 609.217 199.276 608.989 199.276H607.862C607.634 199.276 607.446 199.195 607.272 199.021C607.098 198.846 607.017 198.659 607.017 198.431V195.399C605.515 196.553 603.543 197.612 601.075 198.565C598.606 199.517 596.192 200 593.844 200C590.705 200 588.278 199.276 586.574 197.814L586.561 197.827ZM601.477 196.365C603.744 195.399 605.475 194.406 606.668 193.387V185.754C604.053 184.963 601.343 184.574 598.539 184.574C594.985 184.574 592.221 185.137 590.236 186.251C588.251 187.377 587.245 189.014 587.204 191.187C587.124 193.427 587.768 195.09 589.109 196.177C590.451 197.264 592.382 197.8 594.891 197.8C597.024 197.8 599.223 197.317 601.477 196.338V196.365Z" fill="white"></path>
<path d="M659.091 197.653C657.535 196.123 656.757 193.508 656.757 189.792V173.802H655.416C655.188 173.802 655 173.722 654.826 173.547C654.651 173.373 654.571 173.185 654.571 172.957V172.058C654.571 171.83 654.651 171.642 654.826 171.468C655 171.294 655.188 171.213 655.416 171.213H656.757V165.324C656.757 165.096 656.838 164.909 657.012 164.734C657.187 164.56 657.375 164.479 657.603 164.479H659.118C659.346 164.479 659.534 164.56 659.708 164.734C659.883 164.909 659.964 165.096 659.964 165.324V171.213H668.602C668.83 171.213 669.018 171.294 669.192 171.468C669.367 171.642 669.447 171.83 669.447 172.058V172.957C669.447 173.185 669.367 173.373 669.192 173.547C669.018 173.722 668.83 173.802 668.602 173.802H659.964V189.51C659.964 192.421 660.527 194.473 661.64 195.627C662.767 196.781 664.538 197.371 666.966 197.371C668.012 197.371 668.924 197.264 669.716 197.035C670.011 196.955 670.225 196.928 670.333 196.928C670.561 196.928 670.722 196.995 670.815 197.129C670.909 197.263 670.95 197.492 670.95 197.827V198.498C670.95 198.873 670.775 199.115 670.44 199.222C668.978 199.705 667.556 199.946 666.174 199.946C662.995 199.946 660.634 199.182 659.078 197.639L659.091 197.653Z" fill="white"></path>
<path d="M720.341 198.015C718.06 196.727 716.276 194.956 715.015 192.716C713.741 190.476 713.11 187.981 713.11 185.258C713.11 182.535 713.741 180.04 714.988 177.8C716.236 175.559 718.006 173.789 720.287 172.501C722.567 171.213 725.21 170.569 728.201 170.569C732.091 170.569 735.217 171.629 737.564 173.762C739.925 175.895 741.401 178.739 741.991 182.293V183.474C741.991 183.702 741.91 183.89 741.736 184.064C741.562 184.238 741.374 184.319 741.146 184.319H716.517C716.437 184.802 716.423 185.379 716.464 186.063C716.544 188.196 717.094 190.141 718.154 191.898C719.2 193.655 720.635 195.05 722.473 196.083C724.311 197.116 726.363 197.626 728.644 197.626C730.401 197.626 732.091 197.357 733.728 196.807C735.351 196.271 736.759 195.506 737.967 194.54C738.114 194.393 738.329 194.312 738.584 194.312C738.838 194.312 739.053 194.42 739.201 194.648L739.643 195.158C739.791 195.305 739.871 195.52 739.871 195.775C739.871 195.962 739.818 196.11 739.697 196.217C738.315 197.411 736.625 198.337 734.626 198.994C732.628 199.651 730.481 199.973 728.201 199.973C725.25 199.973 722.621 199.329 720.341 198.042V198.015ZM738.798 181.891C738.195 179.128 737.014 176.914 735.23 175.264C733.459 173.614 731.112 172.796 728.188 172.796C725.263 172.796 722.728 173.641 720.676 175.318C718.624 176.995 717.269 179.195 716.638 181.877H738.798V181.891Z" fill="white"></path>
</svg></defs><use href="#svg1717428135_23971"></use></svg>